<?xml version="1.0" standalone="no"?>
<!DOCTYPE svg PUBLIC "-//W3C//DTD SVG 1.1//EN" "http://www.w3.org/Graphics/SVG/1.1/DTD/svg11.dtd" >
<svg xmlns="http://www.w3.org/2000/svg">
<metadata>
This is a custom SVG font generated by IcoMoon.
<iconset grid="8"></iconset>
</metadata>
<defs>
<font id="Iconano" horiz-adv-x="256" >
<font-face units-per-em="256" ascent="224" descent="-32" />
<missing-glyph horiz-adv-x="256" />
<glyph unicode="&#xe000;" d="M 223.75,64.25l-192.00,0.00 c-17.672,0.00-32.00,14.313-32.00,32.00c0.00,17.672, 14.328,32.00, 32.00,32.00l 192.00,0.00 c 17.688,0.00, 32.00-14.328, 32.00-32.00
		C 255.75,78.562, 241.438,64.25, 223.75,64.25z M 223.75,160.25l-192.00,0.00 c-17.672,0.00-32.00,14.328-32.00,32.00s 14.328,32.00, 32.00,32.00l 192.00,0.00 
		c 17.688,0.00, 32.00-14.328, 32.00-32.00S 241.438,160.25, 223.75,160.25z M 31.75,32.25l 192.00,0.00 c 17.688,0.00, 32.00-14.313, 32.00-32.00s-14.313-32.00-32.00-32.00l-192.00,0.00 
		c-17.672,0.00-32.00,14.313-32.00,32.00S 14.078,32.25, 31.75,32.25z"  />
<glyph unicode="&#xe001;" d="M 191.75,0.25l-32.00,0.00 c-17.688,0.00-32.00,14.313-32.00,32.00l0.00,32.00 c0.00,17.688, 14.313,32.00, 32.00,32.00l 32.00,0.00 c 17.688,0.00, 32.00-14.313, 32.00-32.00l0.00-32.00 
		C 223.75,14.562, 209.438,0.25, 191.75,0.25z M 191.75,128.25l-32.00,0.00 c-17.688,0.00-32.00,14.328-32.00,32.00l0.00,32.00 c0.00,17.672, 14.313,32.00, 32.00,32.00l 32.00,0.00 
		c 17.688,0.00, 32.00-14.328, 32.00-32.00l0.00-32.00 C 223.75,142.578, 209.438,128.25, 191.75,128.25z M 63.75,0.25l-32.00,0.00 c-17.672,0.00-32.00,14.313-32.00,32.00l0.00,32.00 
		c0.00,17.688, 14.328,32.00, 32.00,32.00l 32.00,0.00 c 17.672,0.00, 32.00-14.313, 32.00-32.00l0.00-32.00 C 95.75,14.562, 81.422,0.25, 63.75,0.25z M 63.75,128.25l-32.00,0.00 
		c-17.672,0.00-32.00,14.328-32.00,32.00l0.00,32.00 c0.00,17.672, 14.328,32.00, 32.00,32.00l 32.00,0.00 c 17.672,0.00, 32.00-14.328, 32.00-32.00l0.00-32.00 C 95.75,142.578, 81.422,128.25, 63.75,128.25
		z"  />
<glyph unicode="&#x2b;" d="M 224.25,63.75l-64.00,0.00 l0.00-64.00 c0.00-17.688-14.313-32.00-32.00-32.00c-17.672,0.00-32.00,14.313-32.00,32.00l0.00,64.00 l-64.00,0.00 c-17.672,0.00-32.00,14.313-32.00,32.00
		c0.00,17.672, 14.328,32.00, 32.00,32.00l 64.00,0.00 l0.00,64.00 c0.00,17.672, 14.328,32.00, 32.00,32.00c 17.688,0.00, 32.00-14.328, 32.00-32.00l0.00-64.00 l 64.00,0.00 c 17.688,0.00, 32.00-14.328, 32.00-32.00
		C 256.25,78.062, 241.938,63.75, 224.25,63.75z"  />
<glyph unicode="&#x2d;" d="M 31.75,128.25l 192.00,0.00 c 17.688,0.00, 32.00-14.328, 32.00-32.00c0.00-17.688-14.313-32.00-32.00-32.00l-192.00,0.00 c-17.672,0.00-32.00,14.313-32.00,32.00
		C-0.25,113.922, 14.078,128.25, 31.75,128.25z"  />
<glyph unicode="&#x78;" d="M 173.008,96.25l 67.875-67.875c 12.50-12.50, 12.50-32.75,0.00-45.25s-32.75-12.50-45.25,0.00L 127.758,51.00L 59.867-16.875c-12.485-12.50-32.75-12.50-45.25,0.00
		s-12.50,32.75,0.00,45.25l 67.875,67.875L 14.617,164.125c-12.50,12.50-12.50,32.75,0.00,45.25s 32.766,12.50, 45.25,0.00L 127.758,141.50l 67.875,67.875
		c 12.50,12.50, 32.75,12.50, 45.25,0.00s 12.50-32.75,0.00-45.25L 173.008,96.25z" />
<glyph unicode="&#xe005;" d="M 246.883,151.869l-142.50-142.50c-12.50-12.50-32.766-12.50-45.25,0.00l-50.516,50.50c-12.50,12.50-12.50,32.75,0.00,45.25s 32.766,12.50, 45.25,0.00l 27.89-27.875
		l 119.875,119.875c 12.50,12.50, 32.75,12.50, 45.25,0.00C 259.383,184.635, 259.383,164.369, 246.883,151.869z"  />
<glyph unicode="&#x3e;" d="M 214.766,73.617l-90.50-90.50c-12.50-12.50-32.75-12.50-45.25,0.00s-12.50,32.75,0.00,45.25l 67.875,67.875l-67.875,67.875c-12.50,12.50-12.50,32.766,0.00,45.266
		s 32.75,12.50, 45.25,0.00l 90.50-90.516C 227.266,106.367, 227.266,86.117, 214.766,73.617z"  />
<glyph unicode="&#x3c;" d="M 109.247,96.25l 67.875-67.875c 12.50-12.50, 12.50-32.75,0.00-45.25s-32.75-12.50-45.25,0.00l-90.50,90.50c-12.50,12.50-12.50,32.75,0.00,45.25l 90.50,90.50
		c 12.50,12.50, 32.75,12.50, 45.25,0.00s 12.50-32.75,0.00-45.25L 109.247,96.25z"  />
<glyph unicode="&#x5e;" d="M 240.875,47.001c-12.50-12.50-32.75-12.50-45.25,0.00L 127.75,114.876l-67.875-67.875c-12.50-12.50-32.782-12.50-45.25,0.00c-12.50,12.50-12.50,32.75,0.00,45.25
		l 90.50,90.516c 12.50,12.50, 32.75,12.50, 45.25,0.00l 90.50-90.516C 253.375,79.751, 253.375,59.501, 240.875,47.001z"  />
<glyph unicode="&#x76;" d="M 241.367,99.808l-90.50-90.50c-12.50-12.50-32.75-12.50-45.25,0.00l-90.50,90.50c-12.50,12.50-12.50,32.766,0.00,45.25c 12.469,12.50, 32.75,12.50, 45.25,0.00
		l 67.875-67.875l 67.875,67.875c 12.50,12.50, 32.75,12.50, 45.25,0.00C 253.867,132.574, 253.867,112.308, 241.367,99.808z"  />
<glyph unicode="&#xe00a;" d="M 193.922,82.736L 85.531-25.718C 78.063-33.186, 64.00-33.186, 64.00-17.624l0.00,227.75 c0.00,15.563, 14.063,15.563, 21.532,8.078
		l 108.391-108.391C 201.391,102.329, 201.391,90.204, 193.922,82.736z"  />
<glyph unicode="&#xe00b;" d="M 62.063,82.736l 108.406-108.453C 177.938-33.186, 192.00-33.186, 192.00-17.624l0.00,227.75 c0.00,15.563-14.063,15.563-21.532,8.078
		L 62.063,109.814C 54.563,102.33, 54.563,90.204, 62.063,82.736z"  />
<glyph unicode="&#xe00c;" d="M 114.188,161.937L 5.813,53.531c-7.50-7.469-7.50-21.532, 8.063-21.532l 227.75,0.00 c 15.563,0.00, 15.563,14.063, 8.063,21.532
		L 141.281,161.937C 133.813,169.422, 121.688,169.422, 114.188,161.937z"  />
<glyph unicode="&#xe00d;" d="M 114.195,30.047L 5.82,138.437C-1.68,145.922-1.68,160.00, 13.883,160.00l 227.75,0.00 c 15.563,0.00, 15.563-14.078, 8.063-21.563
		L 141.288,30.047C 133.82,22.578, 121.695,22.578, 114.195,30.047z"  />
<glyph unicode="&#xe00e;" d="M 251.688,82.094L 174.406,4.781c-5.625-5.594-14.156-5.594-14.156,6.063L 160.25,181.656 c0.00,11.656, 8.531,11.656, 14.156,6.063
		l 77.281-77.313C 257.313,104.812, 257.313,87.719, 251.688,82.094z M 81.844,4.781L 4.563,82.094
		c-5.625,5.625-5.625,22.719,0.00,28.313L 81.844,187.718C 87.469,193.312, 96.00,193.312, 96.00,181.656l0.00-170.813 
		C 96.00-0.813, 87.469-0.813, 81.844,4.781z"  />
<glyph unicode="&#xe00f;" d="M 42.344,128.25c-11.656,0.00-11.656,8.547-6.063,14.156L 113.594,219.703c 5.625,5.609, 22.719,5.609, 28.313,0.00l 77.313-77.297
		c 5.594-5.609, 5.594-14.156-6.063-14.156L 42.344,128.25 z M 213.156,64.00c 11.656,0.00, 11.656-8.563, 6.063-14.156L 141.906-27.438
		c-5.594-5.625-22.688-5.625-28.313,0.00L 36.282,49.844C 30.688,55.437, 30.688,64.00, 42.344,64.00L 213.156,64.00 z"  />
<glyph unicode="&#xe010;" d="M 193.938,82.736L 53.547-25.718C 46.063-33.186, 32.00-33.186, 32.00-17.624l0.00,227.75 c0.00,15.563, 14.063,15.563, 21.547,8.078
		l 140.391-108.391C 201.406,102.329, 201.406,90.204, 193.938,82.736z"  />
<glyph unicode="&#xe011;" d="M 191.75-31.75l-32.00,0.00 c-17.688,0.00-32.00,14.313-32.00,32.00l0.00,192.00 c0.00,17.672, 14.313,32.00, 32.00,32.00l 32.00,0.00 c 17.688,0.00, 32.00-14.328, 32.00-32.00l0.00-192.00 
		C 223.75-17.438, 209.438-31.75, 191.75-31.75z M 63.75-31.75l-32.00,0.00 c-17.672,0.00-32.00,14.313-32.00,32.00l0.00,192.00 c0.00,17.672, 14.328,32.00, 32.00,32.00l 32.00,0.00 
		c 17.672,0.00, 32.00-14.328, 32.00-32.00l0.00-192.00 C 95.75-17.438, 81.422-31.75, 63.75-31.75z"  />
<glyph unicode="&#xe012;" d="M 63.75,192.25l 128.00,0.00 c 17.688,0.00, 32.00-14.328, 32.00-32.00l0.00-128.00 c0.00-17.688-14.313-32.00-32.00-32.00l-128.00,0.00 c-17.672,0.00-32.00,14.313-32.00,32.00l0.00,128.00 
		C 31.75,177.922, 46.078,192.25, 63.75,192.25z"  />
<glyph unicode="&#xe013;" d="M 223.75-31.75c-17.688,0.00-32.00,14.313-32.00,32.00L 191.75,80.875 L 53.00-26.25c-7.469-7.469-21.563-7.469-21.563,8.125L 31.438,209.578 
		c0.00,15.563, 14.094,15.563, 21.563,8.078l 138.75-107.109L 191.75,192.25 c0.00,17.672, 14.313,32.00, 32.00,32.00s 32.00-14.328, 32.00-32.00l0.00-192.00 
		C 255.75-17.438, 241.438-31.75, 223.75-31.75z"  />
<glyph unicode="&#xe014;" d="M 202.516-26.25L 63.75,80.875L 63.75,0.25 c0.00-17.688-14.328-32.00-32.00-32.00s-32.00,14.313-32.00,32.00l0.00,192.00 c0.00,17.672, 14.328,32.00, 32.00,32.00
		s 32.00-14.328, 32.00-32.00l0.00-81.703 L 202.516,217.656c 7.438,7.484, 21.50,7.484, 21.50-8.078L 224.016-18.125 C 224.016-33.719, 209.953-33.719, 202.516-26.25
		z"  />
<glyph unicode="&#xe015;" d="M 249.938,82.737L 149.531-25.716c-7.469-7.469-21.547-7.469-21.547,8.125L 127.984,80.768 L 21.547-25.716
		C 14.063-33.185,0.00-33.185,0.00-17.591L0.00,210.127 C0.00,225.69, 14.063,225.69, 21.547,218.19l 106.438-106.438L 127.984,210.127 
		c0.00,15.563, 14.078,15.563, 21.547,8.063l 100.406-108.375C 257.406,102.315, 257.406,90.206, 249.938,82.737z"  />
<glyph unicode="&#xe016;" d="M 234.469-25.71L 128.00,80.758l0.00-98.344 c0.00-15.594-14.063-15.594-21.547-8.125L 6.063,82.727
		c-7.484,7.469-7.484,19.594,0.00,27.078L 106.453,218.196C 113.938,225.68, 128.00,225.68, 128.00,210.117l0.00-98.359 L 234.469,218.196
		C 241.938,225.68, 256.00,225.68, 256.00,210.117l0.00-227.703 C 256.00-33.179, 241.938-33.179, 234.469-25.71z"  />
<glyph unicode="&#xe017;" d="M 241.063,63.703L 13.344,63.703 c-15.563,0.00-15.563,14.063-8.078,21.532L 113.672,193.64c 7.484,7.484, 19.61,7.484, 27.078,0.00
		l 108.406-108.406C 256.625,77.766, 256.625,63.703, 241.063,63.703z M 31.75,32.00l 192.00,0.00 c 17.688,0.00, 32.00-14.313, 32.00-32.00s-14.313-32.00-32.00-32.00l-192.00,0.00 
		c-17.672,0.00-32.00,14.313-32.00,32.00S 14.078,32.00, 31.75,32.00z"  />
<glyph unicode="&#xe018;" d="M 127.75,192.25c 53.032,0.00, 96.00-42.984, 96.00-96.00c0.00-53.00-42.969-96.00-96.00-96.00s-96.00,43.00-96.00,96.00C 31.75,149.266, 74.719,192.25, 127.75,192.25
		z"  />
<glyph unicode="&#xe019;" d="M 240.00-31.75c-8.844,0.00-16.00,7.157-16.00,16.00l0.00,224.00 c0.00,8.844, 7.157,16.00, 16.00,16.00s 16.00-7.157, 16.00-16.00l0.00-224.00 
		C 256.00-24.594, 248.844-31.75, 240.00-31.75z M 117.25-26.25c-7.469-7.469-21.532-7.469-21.532,8.125L 95.719,48.219 L 21.25-26.25
		c-7.469-7.469-21.532-7.469-21.532,8.125L-0.282,209.578 c0.00,15.563, 14.063,15.563, 21.532,8.078l 74.469-74.438L 95.719,209.578 
		c0.00,15.563, 14.063,15.563, 21.532,8.078l 100.406-108.391c 7.469-7.484, 7.469-19.61,0.00-27.078L 117.25-26.25z"  />
<glyph unicode="&#xe01a;" d="M 234.766-26.25l-74.50,74.469L 160.266-18.125 c0.00-15.594-14.047-15.594-21.515-8.125L 38.344,82.187c-7.50,7.469-7.50,19.594,0.00,27.078
		L 138.75,217.656c 7.469,7.484, 21.515,7.484, 21.515-8.078l0.00-66.359 l 74.50,74.438c 7.438,7.484, 21.50,7.484, 21.50-8.078L 256.265-18.125 
		C 256.265-33.719, 242.203-33.719, 234.766-26.25z M 16.00-31.75c-8.844,0.00-16.00,7.157-16.00,16.00l0.00,224.00 c0.00,8.844, 7.157,16.00, 16.00,16.00
		s 16.00-7.157, 16.00-16.00l0.00-224.00 C 32.00-24.594, 24.844-31.75, 16.00-31.75z"  />
<glyph unicode="&#xe01b;" d="M 223.75-31.75l-64.00,0.00 c-17.688,0.00-38.00,10.00-24.00,24.00l 33.625,33.625l-112.00,112.00L 23.75,104.25c-14.00-14.00-24.00,6.328-24.00,24.00l0.00,64.00 
		c0.00,17.672, 14.313,32.00, 32.00,32.00l 64.00,0.00 c 17.688,0.00, 38.00-10.00, 24.00-24.00l-33.125-33.125l 112.00-112.00l 33.125,33.125c 14.00,14.00, 24.00-6.328, 24.00-24.00l0.00-64.00 
		C 255.75-17.422, 241.438-31.75, 223.75-31.75z"  />
<glyph unicode="&#xe01c;" d="M 222.625,46.621l 23.75-23.75c 12.50-12.50, 12.50-32.782,0.00-45.282c-12.50-12.469-32.75-12.469-45.25,0.00l-23.75,23.75l-25.125-25.094
		c-14.00-14.00-24.00,6.313-24.00,24.00l0.00,64.00 c0.00,17.672, 14.313,32.00, 32.00,32.00l 64.00,0.00 c 17.688,0.00, 38.00-10.00, 24.00-24.00L 222.625,46.621z M 96.25,96.246l-64.00,0.00 
		c-17.688,0.00-38.00,10.00-24.00,24.00l 25.125,25.125l-24.25,24.25c-12.50,12.50-12.50,32.766,0.00,45.266s 32.75,12.50, 45.25,0.00l 24.25-24.25l 25.625,25.61
		c 14.00,14.00, 24.00-6.328, 24.00-24.00l0.00-64.00 C 128.25,110.574, 113.938,96.246, 96.25,96.246z"  />
<glyph unicode="&#xe01d;" d="M 238.25,57.75c 10.50,10.50, 18.00-4.75, 18.00-18.00l0.00-48.00 c0.00-13.25-10.75-24.00-24.00-24.00l-48.00,0.00 c-13.25,0.00-28.50,7.50-18.00,18.00l 21.625,21.625L 127.75,67.50L 67.625,7.375
		l 21.625-21.625c 10.50-10.50-4.75-18.00-18.00-18.00l-48.00,0.00 c-13.25,0.00-24.00,10.75-24.00,24.00l0.00,48.00 c0.00,13.25, 7.50,28.50, 18.00,18.00l 21.125-21.125L 98.50,96.75L 38.875,156.375L 17.25,134.75
		c-10.50-10.50-18.00,4.75-18.00,18.00l0.00,48.00 c0.00,13.25, 10.75,24.00, 24.00,24.00l 48.00,0.00 c 13.25,0.00, 28.50-7.50, 18.00-18.00l-21.125-21.125L 127.75,126.00L 187.375,185.625L 166.25,206.75
		c-10.50,10.50, 4.75,18.00, 18.00,18.00l 48.00,0.00 c 13.25,0.00, 24.00-10.75, 24.00-24.00l0.00-48.00 c0.00-13.25-7.50-28.50-18.00-18.00l-21.625,21.625L 157.00,96.75l 60.125-60.109L 238.25,57.75z"  />
<glyph unicode="&#xe01e;" d="M 170.766-26.469L 116.563,32.00L 64.00,32.00 c-17.688,0.00-32.00,14.344-32.00,32.00L 32.00,128.00 c0.00,17.688, 14.313,32.00, 32.00,32.00l 53.563,0.00 L 170.766,217.406
		c 7.438,7.50, 21.50,7.50, 21.50-8.063L 192.266-18.375 C 192.266-33.969, 178.203-33.969, 170.766-26.469z"  />
<glyph unicode="&#xe01f;" d="M 200.906-9.469L 182.125,17.625C 206.938,34.875, 223.25,63.50, 223.25,96.00c0.00,32.75-16.532,61.625-41.657,78.844l 18.594,27.219
		C 234.00,178.937, 256.25,140.094, 256.25,96.00C 256.25,52.25, 234.281,13.75, 200.906-9.469z M 138.50-26.469L 80.00,32.00L 31.75,32.00 
		c-17.688,0.00-32.00,14.344-32.00,32.00L-0.25,128.00 c0.00,17.688, 14.313,32.00, 32.00,32.00l 49.313,0.00 L 138.50,217.406c 7.469,7.50, 21.532,7.50, 21.532-8.063L 160.031-18.375 
		C 160.031-33.969, 145.969-33.969, 138.50-26.469z"  />
<glyph unicode="&#x69;" d="M 112.25-1.50c-62.125,0.00-112.50,50.532-112.50,112.875S 50.125,224.25, 112.25,224.25s 112.50-50.532, 112.50-112.875S 174.375-1.50, 112.25-1.50z
		 M 95.75,46.875c0.00-8.281, 7.719-15.00, 16.00-15.00s 16.00,6.719, 16.00,15.00l0.00,66.00 c0.00,8.281-7.719,15.00-16.00,15.00s-16.00-6.719-16.00-15.00L 95.75,46.875 z M 130.75,177.062
		c0.00,9.844-9.156,17.813-19.00,17.813s-19.00-7.969-19.00-17.813l0.00-2.375 c0.00-9.844, 9.156-17.813, 19.00-17.813s 19.00,7.969, 19.00,17.813L 130.75,177.062 z"  />
<glyph unicode="&#x21;" d="M 212.875-31.992L 11.64-31.992 c-8.36,1.00-13.656,27.00-9.735,34.375L 103.594,217.742l 0.453,0.00 c 0.86,3.828, 4.109,6.75, 8.203,6.75
		s 7.344-2.922, 8.188-6.75l 0.469,0.00 l 101.688-215.359C 226.50-4.992, 221.219-30.992, 212.875-31.992z M 128.25,145.414
		c0.00,8.281-7.719,15.00-16.00,15.00s-16.00-6.719-16.00-15.00l0.00-66.00 c0.00-8.281, 7.719-15.00, 16.00-15.00s 16.00,6.719, 16.00,15.00L 128.25,145.414 z M 131.25,17.601
		c0.00,9.844-9.156,17.813-19.00,17.813s-19.00-7.969-19.00-17.813l0.00-2.375 c0.00-9.844, 9.156-17.813, 19.00-17.813s 19.00,7.969, 19.00,17.813L 131.25,17.601 z"  />
<glyph unicode="&#xe022;" d="M 236.891,98.754L 179.656,41.536l-29.282-29.297c-12.50-12.50-32.75-12.50-45.25,0.00l-29.265,29.265l-57.25,57.25
		c-24.985,24.985-24.985,65.516,0.00,90.50c 25.00,25.00, 65.516,25.00, 90.516,0.00l 18.625-18.625l 18.625,18.625c 25.00,25.00, 65.516,25.00, 90.516,0.00
		C 261.875,164.27, 261.875,123.739, 236.891,98.754z"  />
<glyph unicode="&#xe023;" d="M 241.719,36.00L 160.00,90.859L 160.00,64.00 c0.00-17.688-14.313-32.00-32.00-32.00L 32.00,32.00 c-17.688,0.00-32.00,14.313-32.00,32.00L0.00,160.00 c0.00,17.672, 14.313,32.00, 32.00,32.00l 96.00,0.00 
		c 17.688,0.00, 32.00-14.328, 32.00-32.00l0.00-27.907 L 241.719,186.937c 5.594,5.609, 14.156,5.609, 14.156-6.063l0.00-138.813 
		C 255.875,30.406, 247.313,30.406, 241.719,36.00z"  />
<glyph unicode="&#xe024;" d="M 31.75,224.25l 160.00,0.00 c 17.688,0.00, 32.00-14.328, 32.00-32.00l0.00-200.00 c0.00-17.672-27.313-25.00-32.00-16.00c0.00,0.00-78.656,88.00-79.00,88.00c-0.672,0.00-81.00-88.00-81.00-88.00
		c-3.672-8.00-32.00-1.672-32.00,16.00l0.00,200.00 C-0.25,209.922, 14.078,224.25, 31.75,224.25z"  />
<glyph unicode="&#xe025;" d="M 223.75,32.25L 223.75,149.578 c0.00,23.578-19.125,42.672-42.688,42.672L 63.75,192.25 c0.00,17.672, 14.328,32.00, 32.00,32.00l 128.00,0.00 c 17.688,0.00, 32.00-14.328, 32.00-32.00
		l0.00-128.00 C 255.75,46.562, 241.438,32.25, 223.75,32.25z M 191.75,128.25l0.00-128.00 c0.00-17.688-14.313-32.00-32.00-32.00l-128.00,0.00 c-17.672,0.00-32.00,14.313-32.00,32.00l0.00,128.00 
		c0.00,17.672, 14.328,32.00, 32.00,32.00l 128.00,0.00 C 177.438,160.25, 191.75,145.922, 191.75,128.25z"  />
<glyph unicode="&#xe026;" d="M 246.00,105.375L 118.359-22.281c-12.50-12.50-32.766-12.50-45.25,0.00L 9.219,41.609c-12.50,12.485-12.50,32.75,0.00,45.25L 136.875,214.515
		C 142.688,220.485, 150.75,224.25, 159.75,224.25l 64.00,0.00 c 17.688,0.00, 32.00-14.328, 32.00-32.00l0.00-64.00 C 255.75,119.25, 252.00,111.187, 246.00,105.375z M 207.813,192.187
		c-8.813,0.00-16.00-7.172-16.00-16.00c0.00-8.844, 7.188-16.00, 16.00-16.00c 8.844,0.00, 16.00,7.157, 16.00,16.00C 223.813,185.016, 216.656,192.187, 207.813,192.187z"  />
<glyph unicode="&#xe027;" d="M 222.625,160.25L 159.75,160.25 L 159.75,223.11 L 222.625,160.25z M 127.75,128.25l 96.00,0.00 l0.00-128.00 c0.00-17.688-14.313-32.00-32.00-32.00l-128.00,0.00 c-17.672,0.00-32.00,14.313-32.00,32.00
		l0.00,192.00 c0.00,17.672, 14.328,32.00, 32.00,32.00l 64.00,0.00 L 127.75,128.25 z"  />
<glyph unicode="&#xe028;" d="M 127.719,47.25L 2.25,172.703C 7.125,184.187, 18.50,192.25, 31.75,192.25l 192.00,0.00 c 13.25,0.00, 24.594-8.047, 29.469-19.532L 127.719,47.25z
		 M 104.625,33.875c 12.50-12.50, 32.75-12.50, 45.25,0.00L 255.75,139.734L 255.75,32.25 c0.00-17.688-14.344-32.00-32.00-32.00l-192.00,0.00 c-17.688,0.00-32.00,14.313-32.00,32.00L-0.25,138.734 
		L 104.625,33.875z"  />
<glyph unicode="&#xe029;" d="M 223.75,32.25l-96.00,0.00 l-64.00-64.00l0.00,64.00 l-32.00,0.00 c-17.688,0.00-32.00,14.313-32.00,32.00l0.00,128.00 c0.00,17.672, 14.313,32.00, 32.00,32.00l 192.00,0.00 
		c 17.657,0.00, 32.00-14.328, 32.00-32.00l0.00-128.00 C 255.75,46.562, 241.406,32.25, 223.75,32.25z"  />
<glyph unicode="&#xe02a;" d="M 223.75,32.25l-96.00,0.00 l-64.00-64.00l0.00,64.00 l-32.00,0.00 c-17.688,0.00-32.00,14.313-32.00,32.00l0.00,128.00 c0.00,17.672, 14.313,32.00, 32.00,32.00l 192.00,0.00 
		c 17.688,0.00, 32.00-14.328, 32.00-32.00l0.00-128.00 C 255.75,46.562, 241.438,32.25, 223.75,32.25z M 79.813,128.172c-8.844,0.00-16.00-7.157-16.00-15.985
		c0.00-8.844, 7.157-16.00, 16.00-16.00s 16.00,7.157, 16.00,16.00C 95.813,121.016, 88.656,128.172, 79.813,128.172z M 175.813,128.172
		c-8.844,0.00-16.00-7.157-16.00-15.985c0.00-8.844, 7.157-16.00, 16.00-16.00s 16.00,7.157, 16.00,16.00C 191.813,121.016, 184.656,128.172, 175.813,128.172z"  />
<glyph unicode="&#xe02b;" d="M 127.75,31.078c-0.25,0.00-0.469,0.063-0.719,0.063L 63.75-32.14L 63.75,44.328 C 25.157,61.047-1.094,91.984-1.094,127.859
		C-1.094,181.312, 56.594,224.64, 127.75,224.64s 128.844-43.328, 128.844-96.781C 256.594,74.422, 198.906,31.078, 127.75,31.078z"  />
<glyph unicode="&#xe02c;" d="M 127.75,31.054c-0.25,0.00-0.469,0.063-0.719,0.063L 63.75-32.133L 63.75,44.304 C 25.157,61.054-1.094,91.976-1.094,127.852
		C-1.094,181.304, 56.594,224.633, 127.75,224.633s 128.844-43.328, 128.844-96.781C 256.594,74.414, 198.906,31.054, 127.75,31.054z
		 M 79.813,127.789c-8.844,0.00-16.00-7.172-16.00-16.00c0.00-8.844, 7.157-16.00, 16.00-16.00s 16.00,7.157, 16.00,16.00
		C 95.813,120.617, 88.656,127.789, 79.813,127.789z M 175.813,127.789c-8.844,0.00-16.00-7.172-16.00-16.00c0.00-8.844, 7.157-16.00, 16.00-16.00
		s 16.00,7.157, 16.00,16.00C 191.813,120.617, 184.656,127.789, 175.813,127.789z"  />
<glyph unicode="&#xe02d;" d="M 245.875-22.375c-12.50-12.50-32.75-12.50-45.25,0.00l-36.313,36.313C 148.563,5.50, 130.844,0.25, 111.75,0.25
		c-61.844,0.00-112.00,50.125-112.00,112.00c0.00,61.859, 50.157,112.00, 112.00,112.00s 112.00-50.141, 112.00-112.00c0.00-19.375-5.375-37.313-14.031-53.219
		l 36.157-36.157C 258.375,10.375, 258.375-9.875, 245.875-22.375z M 111.75,159.75c-26.25,0.00-47.50-21.265-47.50-47.50c0.00-26.25, 21.25-47.50, 47.50-47.50
		c 26.219,0.00, 47.50,21.25, 47.50,47.50C 159.25,138.484, 137.969,159.75, 111.75,159.75z"  />
<glyph unicode="&#xe02e;" d="M 111.75-31.75c-1.032,0.00-96.00,107.00-96.00,160.00c0.00,53.016, 42.969,96.00, 96.00,96.00s 96.00-42.984, 96.00-96.00
		C 207.75,75.25, 112.781-31.75, 111.75-31.75z M 111.75,176.25c-17.688,0.00-32.00-14.328-32.00-32.00s 14.313-32.00, 32.00-32.00c 17.657,0.00, 32.00,14.328, 32.00,32.00
		S 129.406,176.25, 111.75,176.25z"  />
<glyph unicode="&#xe02f;" d="M 127.75,23.383c-54.407,0.00-101.875,29.313-127.844,72.875C 25.875,139.836, 73.344,169.117, 127.75,169.117
		s 101.844-29.282, 127.844-72.859C 229.594,52.696, 182.156,23.383, 127.75,23.383z M 127.656,137.008c-22.50,0.00-40.75-18.235-40.75-40.734
		c0.00-22.515, 18.25-40.734, 40.75-40.734s 40.75,18.219, 40.75,40.734C 168.406,118.773, 150.156,137.008, 127.656,137.008z"  />
<glyph unicode="&#xe030;" d="M 191.75,0.25c-3.719,0.00-7.313,0.438-10.844,1.063c-1.782-0.219-3.344-1.063-5.157-1.063l-88.00,0.00 
		c-2.422,0.00-3.672,1.032-5.703,1.375C 35.578,8.312-0.25,47.937-0.25,96.25c0.00,53.016, 42.984,96.00, 96.00,96.00
		c 41.938,0.00, 77.25-27.078, 90.313-64.578c 1.875,0.172, 3.75,0.578, 5.688,0.578c 35.344,0.00, 64.00-28.657, 64.00-64.00S 227.094,0.25, 191.75,0.25
		z"  />
<glyph unicode="&#xe031;" d="M 112.50-1.375C 50.375-1.375,0.00,49.156,0.00,111.50S 50.375,224.375, 112.50,224.375S 225.00,173.843, 225.00,111.50S 174.625-1.375, 112.50-1.375z M 145.00,128.00
		l-17.00,0.00 L 128.00,177.00 c0.00,8.281-7.719,15.00-16.00,15.00s-16.00-6.719-16.00-15.00l0.00-66.00 c0.00-3.453, 1.547-6.484, 3.719-9.031c 0.328-0.422, 0.578-0.89, 0.953-1.282
		c 0.406-0.391, 0.875-0.64, 1.297-0.969C 104.516,97.547, 107.547,96.00, 111.00,96.00l 34.00,0.00 c 8.281,0.00, 15.00,7.719, 15.00,16.00S 153.281,128.00, 145.00,128.00z"  />
<glyph unicode="&#xe032;" d="M 251.944,87.875l-49.00-60.984c-4.188-4.188-11.094-4.188-11.094,4.563L 191.85,64.00 L 63.662,64.00 l0.00-32.547 c0.00-8.75-6.907-8.75-11.11-4.563
		L 3.568,87.875c-4.203,4.188-4.203,11.015,0.00,15.235l 48.984,60.969c 4.203,4.203, 11.11,4.203, 11.11-4.547L 63.662,128.00 l 128.188,0.00 l0.00,31.532 
		c0.00,8.75, 6.907,8.75, 11.094,4.547l 49.00-60.969C 256.131,98.891, 256.131,92.062, 251.944,87.875z"  />
<glyph unicode="&#xe033;" d="M 159.922,159.838c0.00-0.172, 0.094-0.313, 0.094-0.469l0.00-126.688 l 31.532,0.00 c 8.75,0.00, 8.75-7.938, 4.532-12.125l-60.984-49.00
		c-4.219-4.188-11.031-4.188-15.235,0.00l-60.969,49.00c-4.219,4.188-4.219,12.125, 4.547,12.125L 96.00,32.681 L 96.00,159.369 
		c0.00,0.157, 0.094,0.297, 0.094,0.469l-32.657,0.00 c-8.765,0.00-8.765,7.907-4.547,12.11L 119.859,220.932c 4.203,4.203, 11.015,4.203, 15.235,0.00
		l 60.984-48.984c 4.219-4.203, 4.219-12.11-4.532-12.11L 159.922,159.838 z"  />
<glyph unicode="&#xe034;" d="M 239.75,96.25l-128.00,0.00 c-8.828,0.00-16.00,7.172-16.00,16.00c0.00,8.844, 7.172,16.00, 16.00,16.00l 128.00,0.00 c 8.813,0.00, 16.00-7.157, 16.00-16.00
		C 255.75,103.422, 248.563,96.25, 239.75,96.25z M 239.75,192.25l-128.00,0.00 c-8.828,0.00-16.00,7.172-16.00,16.00c0.00,8.844, 7.172,16.00, 16.00,16.00l 128.00,0.00 
		c 8.813,0.00, 16.00-7.157, 16.00-16.00C 255.75,199.422, 248.563,192.25, 239.75,192.25z M-0.25,32.25l 64.00,0.00 l0.00-64.00 l-64.00,0.00 L-0.25,32.25 z M-0.25,128.25l 64.00,0.00 l0.00-64.00 l-64.00,0.00 L-0.25,128.25 
		z M-0.25,224.25l 64.00,0.00 l0.00-64.00 l-64.00,0.00 L-0.25,224.25 z M 111.75,32.25l 128.00,0.00 c 8.813,0.00, 16.00-7.157, 16.00-16.00c0.00-8.813-7.188-16.00-16.00-16.00l-128.00,0.00 
		c-8.828,0.00-16.00,7.188-16.00,16.00C 95.75,25.094, 102.922,32.25, 111.75,32.25z"  />
<glyph unicode="&#xe035;" d="M 246.625,73.375l-90.50-90.50c-12.50-12.50-32.75-12.50-45.25,0.00s-12.50,32.75,0.00,45.25L 146.75,64.00L 31.50,64.00 c-17.688,0.00-32.00,14.313-32.00,32.00s 14.313,32.00, 32.00,32.00
		l 115.25,0.00 l-35.875,35.875c-12.50,12.50-12.50,32.75,0.00,45.25s 32.75,12.50, 45.25,0.00l 90.50-90.50C 259.125,106.125, 259.125,85.875, 246.625,73.375z"  />
<glyph unicode="&#xe036;" d="M 224.00,64.00L 108.75,64.00 l 35.875-35.875c 12.50-12.50, 12.50-32.75,0.00-45.25s-32.75-12.50-45.25,0.00l-90.50,90.50c-12.50,12.50-12.50,32.75,0.00,45.25l 90.50,90.50
		c 12.50,12.50, 32.75,12.50, 45.25,0.00s 12.50-32.75,0.00-45.25L 108.75,128.00L 224.00,128.00 c 17.688,0.00, 32.00-14.313, 32.00-32.00S 241.688,64.00, 224.00,64.00z"  />
<glyph unicode="&#xe037;" d="M 242.125,79.375c-12.50-12.50-32.75-12.50-45.25,0.00L 160.00,116.25L 160.00,0.00 c0.00-17.688-14.313-32.00-32.00-32.00s-32.00,14.313-32.00,32.00L 96.00,114.25 l-34.875-34.875
		c-12.50-12.50-32.75-12.50-45.25,0.00s-12.50,32.75,0.00,45.25l 90.50,90.50c 12.50,12.50, 32.75,12.50, 45.25,0.00l 90.50-90.50C 254.625,112.125, 254.625,91.875, 242.125,79.375z"  />
<glyph unicode="&#xe038;" d="M 242.125,67.875l-90.50-90.50c-12.50-12.50-32.75-12.50-45.25,0.00l-90.50,90.50c-12.50,12.50-12.50,32.75,0.00,45.25c 12.469,12.50, 32.75,12.50, 45.25,0.00L 96.00,78.25L 96.00,192.50 
		c0.00,17.672, 14.313,32.00, 32.00,32.00s 32.00-14.328, 32.00-32.00l0.00-116.25 l 36.875,36.875c 12.50,12.50, 32.75,12.50, 45.25,0.00S 254.625,80.375, 242.125,67.875z"  />
<glyph unicode="&#xe039;" d="M 127.75-32.75c-71.25,0.00-129.00,57.75-129.00,129.00s 57.75,129.00, 129.00,129.00s 129.00-57.75, 129.00-129.00S 199.00-32.75, 127.75-32.75z M 127.75,9.719
		c 16.532,0.00, 31.813,4.875, 44.969,12.906c-0.25,0.25-0.313,0.25-0.594,0.50l-117.00,117.00c-0.531,0.515-0.531,0.672-0.969,1.125
		c-8.063-13.14-12.938-28.453-12.938-45.00C 41.219,48.437, 79.969,9.719, 127.75,9.719z M 127.75,182.797
		c-16.282,0.00-31.344-4.782-44.344-12.594c 0.406-0.391, 0.531-0.375, 0.969-0.828l 117.00-117.00c 0.188-0.188, 0.188-0.25, 0.344-0.406
		c 7.813,12.985, 12.563,28.032, 12.563,44.282C 214.281,144.047, 175.531,182.797, 127.75,182.797z"  />
<glyph unicode="&#xe03a;" d="M 191.75-31.75l0.00,32.00 l0.00,32.00 l0.00,160.00 c0.00,17.672, 14.313,32.00, 32.00,32.00s 32.00-14.328, 32.00-32.00l0.00-160.00 l0.00-32.00 l0.00-32.00 L 191.75-31.75 z M 95.75,0.25l0.00,32.00 l0.00,64.00 
		c0.00,17.672, 14.313,32.00, 32.00,32.00s 32.00-14.328, 32.00-32.00l0.00-64.00 l0.00-32.00 l0.00-32.00 l-64.00,0.00 L 95.75,0.25 z M-0.25,0.25l0.00,32.00 c0.00,17.672, 14.313,32.00, 32.00,32.00s 32.00-14.328, 32.00-32.00l0.00-32.00 l0.00-32.00 
		l-64.00,0.00 L-0.25,0.25 z"  />
<glyph unicode="&#xe03b;" d="M 191.75-31.75l-128.00,0.00 c-17.688,0.00-32.00,14.313-32.00,32.00l0.00,64.00 c0.00,17.688, 14.313,32.00, 32.00,32.00l0.00,64.00 c0.00,35.344, 28.657,64.00, 64.00,64.00
		s 64.00-28.657, 64.00-64.00l0.00-64.00 c 17.688,0.00, 32.00-14.313, 32.00-32.00l0.00-64.00 C 223.75-17.438, 209.438-31.75, 191.75-31.75z M 159.75,152.25
		c0.00,17.688-14.344,32.00-32.00,32.00c-17.688,0.00-32.00-14.313-32.00-32.00l0.00-56.00 l 64.00,0.00 L 159.75,152.25 z"  />
<glyph unicode="&#xe03c;" d="M 223.75,96.25l0.00,56.00 c0.00,17.688-14.344,32.00-32.00,32.00c-17.688,0.00-32.00-14.313-32.00-32.00l0.00-56.00 c 17.657,0.00, 32.00-14.313, 32.00-32.00l0.00-64.00 
		c0.00-17.688-14.344-32.00-32.00-32.00l-128.00,0.00 c-17.688,0.00-32.00,14.313-32.00,32.00l0.00,64.00 c0.00,17.688, 14.313,32.00, 32.00,32.00l 96.00,0.00 l0.00,64.00 c0.00,35.344, 28.657,64.00, 64.00,64.00
		s 64.00-28.657, 64.00-64.00l0.00-64.00 L 223.75,96.25 z"  />
<glyph unicode="&#xe03d;" d="M 191.75-31.75l-128.00,0.00 c-17.688,0.00-32.00,14.313-32.00,32.00l0.00,64.00 c0.00,17.672, 14.313,32.00, 32.00,32.00l0.00,64.00 c0.00,35.344, 28.657,64.00, 64.00,64.00
		s 64.00-28.657, 64.00-64.00l0.00-32.00 l-32.00,0.00 l0.00,24.00 c0.00,17.672-14.313,32.00-32.00,32.00s-32.00-14.328-32.00-32.00l0.00-56.00 l 32.00,0.00 l 32.00,0.00 l 32.00,0.00 c 17.657,0.00, 32.00-14.328, 32.00-32.00l0.00-64.00 
		C 223.75-17.438, 209.406-31.75, 191.75-31.75z"  />
<glyph unicode="&#xe03e;" d="M 231.009,63.51L 223.79,63.51 l0.00-63.578 c0.00-17.672-14.313-32.00-32.00-32.00l-33.625,0.00 c 0.688,2.625, 1.625,5.157, 1.625,8.00l0.00,88.00 
		c0.00,17.672-14.313,32.00-32.00,32.00s-32.00-14.328-32.00-32.00l0.00-88.00 c0.00-2.844, 0.906-5.375, 1.625-8.00l-33.625,0.00 c-17.688,0.00-32.00,14.328-32.00,32.00L 31.79,63.51 L 25.009,63.51 
		c-25.969,0.00-26.969,42.719-16.00,53.672L 108.165,216.354c 10.969,10.953, 28.719,10.953, 39.688,0.00l 99.156-99.172
		C 257.978,106.228, 254.977,63.51, 231.009,63.51z"  />
<glyph unicode="&#xe03f;" d="M 192.00-32.00l-32.00,0.00 L 160.00,32.00 c0.00,17.688-14.344,32.00-32.00,32.00l-32.00,0.00 c-17.688,0.00-32.00-14.313-32.00-32.00l0.00-64.00 L 32.00-32.00 c-17.688,0.00-32.00,14.313-32.00,32.00L0.00,192.00 
		C0.00,209.687, 14.313,224.00, 32.00,224.00l 160.00,0.00 c 17.688,0.00, 32.00-14.313, 32.00-32.00l0.00-192.00 C 224.00-17.688, 209.688-32.00, 192.00-32.00z M 64.00,192.00L 32.00,192.00 l0.00-32.00 l 32.00,0.00 L 64.00,192.00 z M 64.00,128.00L 32.00,128.00 l0.00-32.00 
		l 32.00,0.00 L 64.00,128.00 z M 128.00,192.00l-32.00,0.00 l0.00-32.00 l 32.00,0.00 L 128.00,192.00 z M 128.00,128.00l-32.00,0.00 l0.00-32.00 l 32.00,0.00 L 128.00,128.00 z M 192.00,192.00l-32.00,0.00 l0.00-32.00 l 32.00,0.00 L 192.00,192.00 z M 192.00,128.00l-32.00,0.00 l0.00-32.00 l 32.00,0.00 L 192.00,128.00 z"  />
<glyph unicode="&#xe040;" d="M 223.75-31.75l-192.00,0.00 c-17.688,0.00-32.00,14.313-32.00,32.00l0.00,96.00 c0.00,17.688, 14.313,32.00, 32.00,32.00l 192.00,0.00 c 17.688,0.00, 32.00-14.313, 32.00-32.00l0.00-96.00 
		C 255.75-17.438, 241.438-31.75, 223.75-31.75z M 239.844,160.00L 15.656,160.00 c-5.407,0.00-10.438-1.313-15.219-3.063
		c-0.125,1.125-0.688,2.125-0.688,3.313c0.00,17.688, 14.313,32.00, 32.00,32.00c0.00,17.688, 14.313,32.00, 32.00,32.00l 64.00,0.00 c 17.688,0.00, 32.00-14.313, 32.00-32.00l 64.00,0.00 
		c 17.688,0.00, 32.00-14.313, 32.00-32.00c0.00-1.188-0.563-2.188-0.688-3.313C 250.281,158.687, 245.25,160.00, 239.844,160.00z"  />
<glyph unicode="&#xe041;" d="M 223.75-31.75l-128.00,0.00 c-17.688,0.00-32.00,14.313-32.00,32.00l0.00,96.00 c0.00,17.688, 14.313,32.00, 32.00,32.00l 128.00,0.00 c 17.688,0.00, 32.00-14.313, 32.00-32.00l0.00-96.00 
		C 255.75-17.438, 241.438-31.75, 223.75-31.75z M 31.875,117.187L 31.875,0.25 L 31.75,0.25 c-17.688,0.00-32.00,14.313-32.00,32.00l0.00,128.00 c0.00,17.688, 14.313,32.00, 32.00,32.00
		c0.00,17.688, 14.313,32.00, 32.00,32.00l 64.00,0.00 c 17.688,0.00, 32.00-14.313, 32.00-32.00l 32.00,0.00 c 17.688,0.00, 32.00-14.313, 32.00-32.00l0.00-0.438 L 74.50,159.812 
		C 50.969,159.812, 31.875,140.719, 31.875,117.187z"  />
<glyph unicode="&#x2a;" d="M 253.804,112.361c0.00-0.504-0.144-1.045-0.721-1.766c-0.757-1.045-1.514-1.694-2.595-2.414
		c-0.253-0.216-0.288-0.324-0.577-0.504c-27.027-19.963-63.495-47.495-63.495-47.495s 13.621-42.955, 23.712-74.775
		c 0.504-1.514, 0.577-2.414, 0.721-3.459c 0.108-0.614, 0.684-0.974, 0.684-1.622c0.00-0.684-0.613-1.081-0.721-1.73
		c-0.144-0.36-0.18-0.865-0.432-1.081c-1.333-4.757-5.01-8.577-10.271-8.577c-0.613,0.00-1.009,0.577-1.657,0.649
		c-1.081,0.00-2.739,0.576-5.117,2.162c-0.432,0.36-1.009,0.432-1.369,0.828c-27.099,19.424-63.568,45.477-63.568,45.477
		s-39.964-28.648-67.315-48.179c-3.964-2.883-5.657-2.522-6.198-0.757c-6.054,0.288-10.919,5.081-10.919,11.207
		c0.00,2.811, 1.297,5.226, 2.991,7.207c 10.054,31.64, 23.459,72.65, 23.459,72.65S 32.002,88.145, 4.939,108.109
		c-0.072,0.072-0.072,0.108-0.18,0.18c-0.901,0.648-1.585,1.189-2.271,2.09c-1.514,1.585-1.982,2.775-1.478,3.567
		c-0.324,1.081-1.261,1.874-1.261,3.099c0.00,4.54, 3.027,7.712, 6.919,9.55c 0.469,0.252, 0.937,0.54, 1.73,0.721
		c 1.009,0.252, 1.657,1.117, 2.739,1.117c 0.613,0.00, 1.009-0.577, 1.585-0.648c 0.18,0.00, 0.216,0.036, 0.432,0.036
		c 33.406,0.252, 79.424,0.54, 79.424,0.54s 13.55,40.721, 24.072,72.397c0.00,0.288-0.288,0.469-0.288,0.757
		c0.00,6.27, 5.117,11.387, 11.387,11.387c 4.108,0.00, 7.063-2.522, 9.081-5.766c 0.937-0.793, 1.946-2.163, 2.955-5.189
		c 10.595-31.856, 24.505-73.585, 24.505-73.585s 45.225-0.288, 78.594-0.54c 0.54,0.108, 0.901,0.613, 1.478,0.613
		c 0.936,0.00, 1.55-0.792, 2.414-1.009c 1.982-0.288, 3.28-0.756, 3.639-1.514c 3.027-2.018, 5.333-4.937, 5.333-8.864
		C 255.75,115.208, 254.596,113.875, 253.804,112.361z"  />
<glyph unicode="&#xe043;" d="M 160.00-31.75L 64.00-31.75 c-17.688,0.00-32.00,14.313-32.00,32.00l0.00,192.00 c0.00,17.672, 14.313,32.00, 32.00,32.00l 96.00,0.00 c 17.688,0.00, 32.00-14.328, 32.00-32.00l0.00-192.00 
		C 192.00-17.438, 177.688-31.75, 160.00-31.75z M 160.00,160.25L 64.00,160.25 l0.00-128.00 l 96.00,0.00 L 160.00,160.25 z"  />
<glyph unicode="&#xe044;" d="M 191.75-31.75l-128.00,0.00 c-17.688,0.00-32.00,14.328-32.00,32.00l0.00,192.00 c0.00,17.672, 14.313,32.00, 32.00,32.00l 128.00,0.00 
		c 17.688,0.00, 32.00-14.328, 32.00-32.00l0.00-192.00 C 223.75-17.422, 209.438-31.75, 191.75-31.75z M 191.75,192.25l-128.00,0.00 l0.00-160.00 l 128.00,0.00 L 191.75,192.25 z"  />
<glyph unicode="&#xe045;" d="M 223.75,0.25l-32.00,0.00 l-128.00,0.00 l-32.00,0.00 c-17.688,0.00-32.00,14.313-32.00,32.00s 14.313,32.00, 32.00,32.00l0.00,96.00 c0.00,17.672, 14.313,32.00, 32.00,32.00l 128.00,0.00 
		c 17.688,0.00, 32.00-14.328, 32.00-32.00l0.00-96.00 c 17.688,0.00, 32.00-14.313, 32.00-32.00S 241.438,0.25, 223.75,0.25z M 191.75,160.25l-128.00,0.00 l0.00-96.00 l 128.00,0.00 L 191.75,160.25 z"  />
<glyph unicode="&#xe046;" d="M 223.75,32.25l-64.00,0.00 l0.00-32.00 l 16.00,0.00 c 8.813,0.00, 16.00-7.157, 16.00-16.00c0.00-8.828-7.188-16.00-16.00-16.00l-100.00,0.00 c-8.844,0.00-16.00,7.172-16.00,16.00
		c0.00,8.844, 7.157,16.00, 16.00,16.00l 20.00,0.00 l0.00,32.00 l-64.00,0.00 c-17.688,0.00-32.00,14.328-32.00,32.00l0.00,128.00 c0.00,17.672, 14.313,32.00, 32.00,32.00l 192.00,0.00 c 17.688,0.00, 32.00-14.328, 32.00-32.00l0.00-128.00 
		C 255.75,46.578, 241.438,32.25, 223.75,32.25z M 223.75,192.25l-192.00,0.00 l0.00-128.00 l 192.00,0.00 L 223.75,192.25 z"  />
<glyph unicode="&#xe047;" d="M 223.75,0.00l-192.00,0.00 c-17.688,0.00-32.00,14.313-32.00,32.00L-0.25,192.00 c0.00,17.672, 14.313,32.00, 32.00,32.00l 192.00,0.00 c 17.688,0.00, 32.00-14.328, 32.00-32.00l0.00-160.00 
		C 255.75,14.312, 241.438,0.00, 223.75,0.00z M 223.75,160.00l-192.00,0.00 l0.00-128.00 l 192.00,0.00 L 223.75,160.00 z"  />
<glyph unicode="&#xe048;" d="M 223.75,0.00l-192.00,0.00 c-17.688,0.00-32.00,14.328-32.00,32.00L-0.25,192.00 c0.00,17.672, 14.313,32.00, 32.00,32.00l 192.00,0.00 c 17.657,0.00, 32.00-14.328, 32.00-32.00l0.00-160.00 
		C 255.75,14.328, 241.406,0.00, 223.75,0.00z M 31.75,32.00l 192.00,0.00 L 223.75,96.00 l-192.00,0.00 L 31.75,32.00 z M 31.75,192.00l0.00-32.00 l 192.00,0.00 L 223.75,192.00 L 31.75,192.00 z"  />
<glyph unicode="&#xe049;" d="M 160.00-31.75L 64.00-31.75 c-17.688,0.00-32.00,14.313-32.00,32.00l0.00,192.00 c0.00,17.672, 14.313,32.00, 32.00,32.00l 96.00,0.00 c 17.688,0.00, 32.00-14.328, 32.00-32.00l0.00-192.00 
		C 192.00-17.438, 177.688-31.75, 160.00-31.75z M 160.00,192.25L 64.00,192.25 l0.00-64.00 l 96.00,0.00 L 160.00,192.25 z M 112.00,96.25c-26.50,0.00-48.00-21.485-48.00-48.00c0.00-26.50, 21.50-48.00, 48.00-48.00
		s 48.00,21.50, 48.00,48.00C 160.00,74.766, 138.50,96.25, 112.00,96.25z M 112.00,32.25c-8.844,0.00-16.00,7.188-16.00,16.00c0.00,8.844, 7.157,16.00, 16.00,16.00s 16.00-7.157, 16.00-16.00
		C 128.00,39.437, 120.844,32.25, 112.00,32.25z"  />
<glyph unicode="&#xe04a;" d="M 207.75-31.75c-26.50,0.00-48.00,21.485-48.00,48.00s 21.50,48.00, 48.00,48.00c 5.688,0.00, 10.938-1.422, 16.00-3.235L 223.75,117.25 l-96.00,48.00l0.00-85.00 c0.00-26.515-21.50-48.00-48.00-48.00
		s-48.00,21.485-48.00,48.00s 21.50,48.00, 48.00,48.00c 5.688,0.00, 10.938-1.422, 16.00-3.235L 95.75,208.25 c0.00,8.844, 7.157,16.00, 16.00,16.00c 0.719,0.00, 1.313-0.313, 2.00-0.406L 113.75,224.25 
		l 1.344-0.672c 2.969-0.656, 5.719-1.859, 7.813-3.906L 241.75,160.25l0.00-0.406 c 7.844-1.016, 14.00-7.469, 14.00-15.594l0.00-128.00 
		C 255.75-10.266, 234.25-31.75, 207.75-31.75z"  />
<glyph unicode="&#xe04b;" d="M 191.75,145.25l0.00-113.00 c0.00-2.313-0.531-5.625-1.438-9.25c-0.625-2.797-1.50-5.50-2.625-8.172c-0.625-1.578-1.282-2.844-2.00-4.297
		c-0.875-1.641-1.719-3.265-2.75-4.844c-0.563-0.765-1.063-1.453-1.625-2.078C 166.094-17.281, 136.75-31.75, 111.75-31.75
		c-35.344,0.00-80.00,28.657-80.00,64.00s 44.657,64.00, 80.00,64.00c 15.813,0.00, 33.313-5.938, 48.00-15.438L 159.75,208.25 c0.00,8.844, 7.157,16.00, 16.00,16.00
		c 0.719,0.00, 1.313-0.313, 2.00-0.406L 177.75,224.25 l 1.344-0.672c 2.969-0.656, 5.719-1.859, 7.813-3.906L 255.75,185.25l0.00-72.00 L 191.75,145.25z"  />
<glyph unicode="&#xe04c;" d="M 223.75,0.25l-192.00,0.00 c-17.688,0.00-32.00,14.313-32.00,32.00l0.00,160.00 c0.00,17.688, 14.313,32.00, 32.00,32.00l 192.00,0.00 c 17.657,0.00, 32.00-14.313, 32.00-32.00l0.00-160.00 
		C 255.75,14.562, 241.406,0.25, 223.75,0.25z M 167.125,116.937l-62.688,41.625c-2.844,2.875-8.25,2.875-8.25-3.125l0.00-87.406 
		c0.00-5.969, 5.407-5.969, 8.25-3.094l 62.688,41.594C 170.00,109.406, 170.00,114.062, 167.125,116.937z"  />
<glyph unicode="&#xe04d;" d="M 223.75,0.00l-192.00,0.00 c-17.688,0.00-32.00,14.313-32.00,32.00L-0.25,160.00 c0.00,17.672, 14.313,32.00, 32.00,32.00l 13.094,0.00 L 79.75,224.00l 96.00,0.00 l 34.907-32.00L 223.75,192.00 
		c 17.657,0.00, 32.00-14.328, 32.00-32.00l0.00-128.00 C 255.75,14.312, 241.406,0.00, 223.75,0.00z M 127.75,31.00c 35.907,0.00, 65.00,29.125, 65.00,65.00
		c0.00,35.891-29.094,65.00-65.00,65.00s-65.00-29.11-65.00-65.00C 62.75,60.125, 91.844,31.00, 127.75,31.00z"  />
<glyph unicode="&#xe04e;" d="M 223.75-31.75l-192.00,0.00 c-17.688,0.00-32.00,14.328-32.00,32.00l0.00,192.00 c0.00,17.672, 14.313,32.00, 32.00,32.00l 192.00,0.00 c 17.657,0.00, 32.00-14.328, 32.00-32.00l0.00-192.00 
		C 255.75-17.422, 241.406-31.75, 223.75-31.75z M 223.75,192.25l-192.00,0.00 l0.00-192.00 l 192.00,0.00 L 223.75,192.25 z M 79.75,160.25c 8.844,0.00, 16.00-7.157, 16.00-16.00
		c0.00-8.828-7.157-16.00-16.00-16.00s-16.00,7.172-16.00,16.00C 63.75,153.094, 70.906,160.25, 79.75,160.25z M 191.75,95.781L 191.75,32.25 l-128.00,0.00 l0.00,32.00 L 143.50,144.016
		L 191.75,95.781z"  />
<glyph unicode="&#xe04f;" d="M 223.75,0.00l-192.00,0.00 c-17.688,0.00-32.00,14.313-32.00,32.00L-0.25,192.00 c0.00,17.672, 14.313,32.00, 32.00,32.00l 192.00,0.00 c 17.688,0.00, 32.00-14.328, 32.00-32.00l0.00-160.00 
		C 255.75,14.312, 241.438,0.00, 223.75,0.00z M 63.75,192.00l-32.00,0.00 l0.00-32.00 l 32.00,0.00 L 63.75,192.00 z M 63.75,128.00l-32.00,0.00 l0.00-32.00 l 32.00,0.00 L 63.75,128.00 z M 63.75,64.00l-32.00,0.00 l0.00-32.00 l 32.00,0.00 L 63.75,64.00 z M 223.75,192.00
		l-32.00,0.00 l0.00-32.00 l 32.00,0.00 L 223.75,192.00 z M 223.75,128.00l-32.00,0.00 l0.00-32.00 l 32.00,0.00 L 223.75,128.00 z M 223.75,64.00l-32.00,0.00 l0.00-32.00 l 32.00,0.00 L 223.75,64.00 z"  />
<glyph unicode="&#xe050;" d="M 208.00,160.25l-16.00,0.00 l0.00-160.00 c0.00-17.672-14.313-32.00-32.00-32.00L 64.00-31.75 c-17.688,0.00-32.00,14.328-32.00,32.00l0.00,160.00 L 16.00,160.25 c-8.813,0.00-16.00,7.172-16.00,16.00
		s 7.188,16.00, 16.00,16.00l 48.00,0.00 l 16.00,0.00 c0.00,17.672, 14.313,32.00, 32.00,32.00s 32.00-14.328, 32.00-32.00l 16.00,0.00 l 48.00,0.00 c 8.813,0.00, 16.00-7.172, 16.00-16.00S 216.813,160.25, 208.00,160.25z
		 M 96.00,112.25c0.00,8.844-7.188,16.00-16.00,16.00c-8.844,0.00-16.00-7.157-16.00-16.00l0.00-96.00 c0.00-8.828, 7.157-16.00, 16.00-16.00c 8.813,0.00, 16.00,7.172, 16.00,16.00L 96.00,112.25 z
		 M 160.00,112.25c0.00,8.844-7.188,16.00-16.00,16.00c-8.844,0.00-16.00-7.157-16.00-16.00l0.00-96.00 c0.00-8.828, 7.157-16.00, 16.00-16.00c 8.813,0.00, 16.00,7.172, 16.00,16.00L 160.00,112.25 z"  />
<glyph unicode="&#xe051;" d="M 203.75,60.25L 139.00,63.875l 14.75-87.625c0.00-4.438-3.563-8.00-8.00-8.00l-8.00,0.00 c-4.438,0.00-8.00,3.063-10.00,8.00l-78.00,140.00c0.00,4.422, 3.563,12.00, 8.00,12.00
		l 56.469-3.063L 41.75,216.25c0.00,4.422, 3.563,8.00, 8.00,8.00l 120.00,0.00 c 4.438,0.00, 8.00-3.578, 8.00-8.00l 36.00-146.00C 213.75,65.828, 208.188,60.25, 203.75,60.25z"  />
<glyph unicode="&#xe052;" d="M 255.75,128.25l0.00-64.00 L 202.813,64.25 c-1.282-3.015-2.375-6.094-4.063-9.00s-3.781-5.391-5.75-8.015l 26.469-45.828l-55.438-32.00
		l-26.407,45.734c-6.407-0.781-12.938-0.11-19.407,0.594l-26.75-46.328l-55.438,32.00l 26.25,45.453
		c-4.032,5.344-6.938,11.313-9.531,17.39l-53.00,0.00 l0.00,64.00 l 53.438,0.00 c 1.313,2.985, 1.875,6.125, 3.563,9.00
		c 1.688,2.906, 3.781,5.391, 5.75,8.015L 36.032,191.093l 55.438,32.00l 26.407-45.734c 6.407,0.781, 12.938,0.11, 19.407-0.594
		l 26.75,46.328l 55.438-32.00l-26.782-46.328c 3.875-5.266, 7.719-10.578, 10.25-16.515L 255.75,128.249 z M 146.75,129.156
		c-18.188,10.50-41.438,4.266-51.907-13.906c-10.50-18.172-4.282-41.422, 13.906-51.907c 18.188-10.50, 41.407-4.266, 51.907,13.906
		S 164.938,118.672, 146.75,129.156z"  />
<glyph unicode="&#xe053;" d="M 224.00,0.00L 32.00,0.00 c-17.688,0.00-32.00,14.328-32.00,32.00L0.00,192.00 C0.00,209.672, 14.313,224.00, 32.00,224.00l 192.00,0.00 c 17.688,0.00, 32.00-14.328, 32.00-32.00l0.00-160.00 
		C 256.00,14.328, 241.688,0.00, 224.00,0.00z M 224.00,160.00c0.00,17.672-14.313,32.00-32.00,32.00L 64.00,192.00 c-17.688,0.00-32.00-14.328-32.00-32.00l0.00-96.00 c0.00-17.672, 14.313-32.00, 32.00-32.00
		l 128.00,0.00 c 17.688,0.00, 32.00,14.328, 32.00,32.00L 224.00,160.00 z M 176.00,64.00L 80.00,64.00 c-8.844,0.00-16.00,7.172-16.00,16.00c0.00,8.844, 7.157,16.00, 16.00,16.00l 96.00,0.00 
		c 8.813,0.00, 16.00-7.157, 16.00-16.00C 192.00,71.172, 184.813,64.00, 176.00,64.00z M 176.00,128.00L 112.00,128.00 c-8.813,0.00-16.00,7.172-16.00,16.00c0.00,8.844, 7.188,16.00, 16.00,16.00l 64.00,0.00 
		c 8.813,0.00, 16.00-7.157, 16.00-16.00C 192.00,135.172, 184.813,128.00, 176.00,128.00z"  />
<glyph unicode="&#xe054;" d="M 223.75,64.25l0.00-32.00 c0.00-17.688-14.313-32.00-32.00-32.00l-160.00,0.00 c-17.688,0.00-32.00,14.313-32.00,32.00l0.00,128.00 c0.00,17.672, 14.313,32.00, 32.00,32.00l 160.00,0.00 
		c 17.688,0.00, 32.00-14.328, 32.00-32.00l0.00-32.00 l 32.00,0.00 l0.00-64.00 L 223.75,64.25 z M 191.75,160.25l-160.00,0.00 l0.00-128.00 l 160.00,0.00 L 191.75,160.25 z"  />
<glyph unicode="&#xe055;" d="M 223.75,64.25l0.00-32.00 c0.00-17.672-14.313-32.00-32.00-32.00l-160.00,0.00 c-17.688,0.00-32.00,14.328-32.00,32.00l0.00,128.00 c0.00,17.672, 14.313,32.00, 32.00,32.00l 160.00,0.00 
		c 17.688,0.00, 32.00-14.328, 32.00-32.00l0.00-32.00 l 32.00,0.00 l0.00-64.00 L 223.75,64.25 z M 191.75,160.25l-64.00,0.00 l0.00-128.00 l 64.00,0.00 L 191.75,160.25 z"  />
<glyph unicode="&#xe056;" d="M 255.75,64.25l-32.00,0.00 l0.00-32.00 c0.00-17.688-14.313-32.00-32.00-32.00l-160.00,0.00 c-17.688,0.00-32.00,14.313-32.00,32.00l0.00,128.00 c0.00,17.672, 14.313,32.00, 32.00,32.00l 160.00,0.00 
		c 17.688,0.00, 32.00-14.328, 32.00-32.00l0.00-32.00 l 32.00,0.00 L 255.75,64.25 z"  />
<glyph unicode="&#xe057;" d="M 237.938,149.719c-31.00,23.00-69.063,37.063-110.656,37.063c-41.094,0.00-78.406-14.031-109.188-36.594L-0.25,186.656l0.00,0.11 
		C 32.282,209.11, 71.125,222.297, 112.875,225.063l 34.094,0.00 c 40.125-3.453, 77.344-16.844, 108.781-38.469l0.00-1.813 L 237.938,149.719z
		 M 211.219,97.031L 193.438,62.00c-16.50,17.485-39.719,28.547-65.656,28.547c-25.813,0.00-48.969-10.953-65.469-28.297l-17.625,35.032
		c 22.375,19.265, 51.188,31.282, 83.063,31.282C 159.781,128.562, 188.719,116.422, 211.219,97.031z M 127.563,32.875
		c 17.875,0.00, 32.313-14.469, 32.313-32.313S 145.438-31.75, 127.563-31.75c-17.813,0.00-32.313,14.469-32.313,32.313
		S 109.75,32.875, 127.563,32.875z"  />
<glyph unicode="&#xe058;" d="M 223.75-31.75l-192.00,0.00 c-17.688,0.00-32.00,14.328-32.00,32.00l0.00,160.00 c0.00,17.672, 14.313,32.00, 32.00,32.00l 32.00,0.00 l0.00,32.00 l 32.00,0.00 l0.00-32.00 l 64.00,0.00 l0.00,32.00 l 32.00,0.00 l0.00-32.00 l 32.00,0.00 
		c 17.657,0.00, 32.00-14.328, 32.00-32.00l0.00-160.00 C 255.75-17.422, 241.406-31.75, 223.75-31.75z M 223.75,128.25l-192.00,0.00 l0.00-128.00 l 192.00,0.00 L 223.75,128.25 z M 79.75,96.25
		c 8.844,0.00, 16.00-7.172, 16.00-16.00l0.00-32.00 c0.00-8.828-7.157-16.00-16.00-16.00s-16.00,7.172-16.00,16.00l0.00,32.00 C 63.75,89.078, 70.906,96.25, 79.75,96.25z
		 M 143.75,96.25l 32.00,0.00 c 8.844,0.00, 16.00-7.172, 16.00-16.00l0.00-32.00 c0.00-8.828-7.157-16.00-16.00-16.00s-16.00,7.172-16.00,16.00l0.00,16.00 l-16.00,0.00 c-8.844,0.00-16.00,7.172-16.00,16.00
		S 134.906,96.25, 143.75,96.25z"  />
<glyph unicode="&#xe059;" d="M 249.755,8.25c 10.00-13.688, 7.657-40.00-10.00-40.00l-224.00,0.00 c-17.688,0.00-20.00,26.313-10.00,40.00l 90.00,120.00l0.00,64.00 l-16.00,0.00 c-8.844,0.00-16.00,7.172-16.00,16.00
		c0.00,8.844, 7.157,16.00, 16.00,16.00l 96.00,0.00 c 8.844,0.00, 16.00-7.157, 16.00-16.00c0.00-8.828-7.157-16.00-16.00-16.00l-16.00,0.00 l0.00-64.00 L 249.755,8.25z"  />
<glyph unicode="&#xe05a;" d="M 250.894,153.582l-37.532-37.532c-5.844-5.859-14.594-6.922-21.594-3.344c-0.25-0.234-0.531-0.422-0.75-0.656
		l-20.594,20.578c-3.656,3.64-9.531,3.64-13.188,0.00l-65.875-65.875c-3.656-3.64-3.656-9.547,0.00-13.188l 20.594-20.578
		c-0.25-0.234-0.469-0.469-0.688-0.703c 3.594-7.00, 2.531-15.781-3.313-21.657l-37.532-37.532c-7.282-7.282-19.094-7.282-26.375,0.00
		L 5.114,12.035c-3.969,3.985-5.719,9.313-5.344,14.515l-0.625,0.64c 0.281,0.688, 0.688,1.422, 1.00,2.094
		c 0.594,2.672, 1.813,5.203, 3.594,7.438c 15.531,30.672, 43.282,67.922, 79.438,104.094S 156.582,204.723, 187.269,220.239
		c 2.25,1.782, 4.75,3.015, 7.438,3.61c 0.688,0.313, 1.407,0.719, 2.094,1.016l 0.656-0.656c 5.188,0.375, 10.531-1.344, 14.50-5.328
		l 38.938-38.938C 258.176,172.66, 258.176,160.864, 250.894,153.582z"  />
<glyph unicode="&#x24;" d="M 192.00,0.00L 111.00,0.00 c 8.844,0.00, 16.00,7.172, 16.00,16.00l0.00,17.032 c 19.594,6.407, 34.00,24.219, 34.00,45.969c0.00,12.375-5.00,23.375-12.563,32.00
		c 0.25,0.297, 0.375,0.703, 0.625,1.00l-1.688,0.00 c-8.938,9.625-21.219,16.00-35.375,16.00c-3.25,0.00-6.375-0.453-9.406-1.078
		C 96.938,130.172, 93.00,136.00, 93.00,143.00c0.00,10.50, 8.50,19.00, 19.00,19.00c 2.938,0.00, 5.657-0.797, 8.156-2.00l 37.469,0.00 c-5.282,13.672-16.50,24.36-30.625,28.969
		L 127.00,208.00 c0.00,8.828-7.157,16.00-16.00,16.00l 81.00,0.00 c 17.688,0.00, 32.00-14.328, 32.00-32.00l0.00-160.00 C 224.00,14.328, 209.688,0.00, 192.00,0.00z M 95.00,208.00l0.00-19.438 
		C 76.375,181.625, 63.00,164.031, 63.00,143.00c0.00-11.953, 4.813-22.515, 11.938-31.00l 1.688,0.00 c-0.313-0.359-0.75-0.64-1.063-1.00
		c 9.00-10.235, 21.75-17.00, 36.438-17.00c 3.281,0.00, 6.438,0.453, 9.50,1.094c 5.563-3.313, 9.50-9.14, 9.50-16.094c0.00-10.50-8.50-19.00-19.00-19.00
		c-4.25,0.00-7.969,1.657-11.125,4.00l-35.50,0.00 c 4.625-14.156, 15.656-25.36, 29.625-30.563L 95.00,16.00 c0.00-8.828, 7.157-16.00, 16.00-16.00L 32.00,0.00 
		c-17.688,0.00-32.00,14.328-32.00,32.00L0.00,192.00 C0.00,209.672, 14.313,224.00, 32.00,224.00l 79.00,0.00 C 102.156,224.00, 95.00,216.828, 95.00,208.00z"  />
<glyph unicode="&#xe05c;" d="M 223.75,32.25l-64.00,0.00 l0.00-32.00 l 16.00,0.00 c 8.844,0.00, 16.00-7.157, 16.00-16.00c0.00-8.813-7.157-16.00-16.00-16.00l-100.00,0.00 c-8.844,0.00-16.00,7.188-16.00,16.00
		c0.00,8.844, 7.157,16.00, 16.00,16.00l 20.00,0.00 l0.00,32.00 l-64.00,0.00 c-17.688,0.00-32.00,14.313-32.00,32.00l0.00,128.00 c0.00,17.672, 14.313,32.00, 32.00,32.00l 192.00,0.00 c 17.657,0.00, 32.00-14.328, 32.00-32.00l0.00-128.00 
		C 255.75,46.562, 241.406,32.25, 223.75,32.25z M 223.75,192.25l-192.00,0.00 l0.00-96.00 l 192.00,0.00 L 223.75,192.25 z"  />
<glyph unicode="&#xe05d;" d="M 246.719,89.875L 127.75-29.094l0.00-2.656 l-128.00,0.00 l0.00,128.00 l 2.656,0.00 L 121.375,215.219c 12.50,12.50, 32.75,12.50, 45.25,0.00L 246.719,135.125
		C 259.219,122.641, 259.219,102.375, 246.719,89.875z M 129.00,165.156L 54.282,90.437c-15.406-15.406-35.813-27.813, 2.031-65.641
		c 36.157-36.172, 48.657-16.985, 64.625-1.032L 195.656,98.50c 7.75,7.734, 7.75,20.297,0.00,28.032l-8.438,8.422L 121.375,69.125
		c-12.50-12.50-20.782-24.50-33.25-12.00c-12.50,12.50-0.50,20.75, 12.00,33.25l 65.844,65.844l-8.938,8.938C 149.281,172.891, 136.719,172.891, 129.00,165.156z"  />
<glyph unicode="&#xe05e;" d="M 255.75,80.50l0.00-16.50 c0.00-17.688-14.313-32.00-32.00-32.00l-192.00,0.00 c-17.688,0.00-32.00,14.313-32.00,32.00l0.00,16.50 c 17.407,0.00, 31.50,14.11, 31.50,31.50
		c0.00,17.407-14.094,31.50-31.50,31.50l0.00,16.50 c0.00,17.672, 14.313,32.00, 32.00,32.00l 192.00,0.00 c 17.688,0.00, 32.00-14.328, 32.00-32.00l0.00-16.50 c-17.407,0.00-31.50-14.094-31.50-31.50
		C 224.25,94.609, 238.344,80.50, 255.75,80.50z M 191.75,160.00l-128.00,0.00 l0.00-96.00 l 128.00,0.00 L 191.75,160.00 z"  />
<glyph unicode="&#xe05f;" d="M 223.75,0.25l-64.00,0.00 c-17.688,0.00-32.00,14.328-32.00,32.00l-64.00,0.00 c-17.688,0.00-32.00,14.328-32.00,32.00l0.00-80.00 c0.00-8.828-7.157-16.00-16.00-16.00
		s-16.00,7.172-16.00,16.00l0.00,224.00 c0.00,8.844, 7.157,16.00, 16.00,16.00s 16.00-7.157, 16.00-16.00l0.00-48.00 c0.00,17.672, 14.313,32.00, 32.00,32.00l 64.00,0.00 c 17.688,0.00, 32.00-14.328, 32.00-32.00l 64.00,0.00 
		c 17.688,0.00, 32.00-14.328, 32.00-32.00l0.00-96.00 C 255.75,14.578, 241.438,0.25, 223.75,0.25z"  />
<glyph unicode="&#xe060;" d="M 214.375,8.875c-12.50-12.50-32.75-12.50-45.25,0.00L 63.75,114.25L 63.75,64.00 c0.00-17.657-14.313-32.00-32.00-32.00s-32.00,14.344-32.00,32.00L-0.25,192.00 
		c0.00,17.672, 14.313,32.00, 32.00,32.00l 128.00,0.00 c 17.688,0.00, 32.00-14.328, 32.00-32.00s-14.313-32.00-32.00-32.00L 108.50,160.00 l 105.875-105.875
		C 226.875,41.625, 226.875,21.375, 214.375,8.875z"  />
<glyph unicode="&#xe061;" d="M 224.00,32.00c-17.688,0.00-32.00,14.344-32.00,32.00l0.00,49.234 L 86.125,7.375c-12.50-12.50-32.75-12.50-45.25,0.00c-12.50,12.469-12.50,32.75,0.00,45.25L 148.25,160.00L 96.00,160.00 
		c-17.688,0.00-32.00,14.328-32.00,32.00s 14.313,32.00, 32.00,32.00l 128.00,0.00 c 17.688,0.00, 32.00-14.328, 32.00-32.00l0.00-128.00 C 256.00,46.344, 241.688,32.00, 224.00,32.00z"  />
<glyph unicode="&#xe062;" d="M 224.00-33.00c-1.75,0.00-3.25,0.719-4.938,1.00L 96.00-32.00 c-17.688,0.00-32.00,14.344-32.00,32.00c0.00,17.688, 14.313,32.00, 32.00,32.00l 50.25,0.00 L 41.875,136.375
		c-12.50,12.50-12.50,32.766,0.00,45.266s 32.75,12.50, 45.25,0.00L 192.00,76.75L 192.00,127.00 c0.00,17.672, 14.313,32.00, 32.00,32.00s 32.00-14.328, 32.00-32.00l0.00-128.00 
		C 256.00-18.688, 241.688-33.00, 224.00-33.00z"  />
<glyph unicode="&#xe063;" d="M 214.375,137.875L 108.50,32.00l 51.25,0.00 c 17.688,0.00, 32.00-14.313, 32.00-32.00s-14.313-32.00-32.00-32.00l-128.00,0.00 c-17.688,0.00-32.00,14.313-32.00,32.00L -0.25,128.00 
		c0.00,17.672, 14.313,32.00, 32.00,32.00s 32.00-14.328, 32.00-32.00l0.00-50.25 L 169.125,183.125c 12.50,12.50, 32.75,12.50, 45.25,0.00S 226.875,150.375, 214.375,137.875z"  />
<glyph unicode="&#xe064;" d="M 64.00,192.00l 144.00,0.00 c 17.688,0.00, 28.00-20.00, 16.00-32.00L 64.00,0.00c-12.00-12.00-32.00-1.688-32.00,16.00L 32.00,160.00 C 32.00,177.672, 46.328,192.00, 64.00,192.00z"  />
<glyph unicode="&#xe065;" d="M 192.00,192.00L 48.00,192.00 c-17.672,0.00-28.00-20.00-16.00-32.00l 160.00-160.00c 12.00-12.00, 32.00-1.688, 32.00,16.00L 224.00,160.00 C 224.00,177.672, 209.688,192.00, 192.00,192.00z"  />
<glyph unicode="&#xe066;" d="M 192.00,0.00L 48.00,0.00 c-17.672,0.00-28.00,20.00-16.00,32.00L 192.00,192.00c 12.00,12.00, 32.00,1.672, 32.00-16.00l0.00-144.00 C 224.00,14.312, 209.688,0.00, 192.00,0.00z"  />
<glyph unicode="&#xe067;" d="M 64.00,0.00l 144.00,0.00 c 17.688,0.00, 28.00,20.00, 16.00,32.00L 64.00,192.00c-12.00,12.00-32.00,1.672-32.00-16.00l0.00-144.00 C 32.00,14.312, 46.328,0.00, 64.00,0.00z"  />
<glyph unicode="&#xe068;" d="M 127.75-31.802c-67.469,0.00-122.156,11.531-122.156,27.032c0.00,0.032, 0.032,0.094, 0.032,0.125s-0.032,0.032-0.032,0.032
		c0.00,28.719, 22.375,49.282, 33.063,54.313c 10.719,5.063, 34.188,12.156, 43.875,18.219c 9.719,6.063, 12.875,8.594, 12.875,8.594
		s 0.063-0.781, 0.313-2.031l0.00,12.86 c-6.907,9.031-12.156,20.89-15.031,34.375c-0.063-0.015-0.094-0.11-0.188-0.141
		c-4.625-1.219-10.281,4.891-12.656,13.656s-0.563,16.875, 4.063,18.094c 0.313,0.078, 0.594-0.094, 0.906-0.078
		c-0.75,9.719-1.688,22.922-1.688,26.938c0.00,6.578-1.032,12.14, 7.625,23.765c 8.688,11.64, 15.844,7.078, 15.844,7.078
		s 5.594,5.578, 10.688,8.11c 5.125,2.531, 17.344,8.844, 39.813,2.265c 22.438-6.578, 31.125-9.36, 36.719-34.641
		c 3.25-14.578, 2.719-26.157, 1.719-33.469c 0.188-0.015, 0.375,0.078, 0.531,0.032c 4.625-1.219, 6.469-9.328, 4.094-18.094
		c-2.313-8.61-7.813-14.61-12.406-13.672c-3.00-14.156-8.625-26.515-16.063-35.688l0.00-10.14 c 0.063,0.469, 0.094,0.781, 0.094,0.781
		s 3.156-2.531, 12.844-8.594c 9.719-6.063, 33.188-13.156, 43.907-18.219c 10.438-4.907, 31.813-24.625, 32.875-52.219c 0.25-0.75, 0.50-1.50, 0.50-2.25
		C 249.906-20.271, 195.219-31.802, 127.75-31.802z"  />
<glyph unicode="&#xe069;" d="M 252.883-33.747c-24.625,67.938-84.188,119.141-157.234,130.859L 95.649,182.441 c 90.734-15.313, 159.984-93.703, 159.984-188.781
		C 255.633-15.715, 254.196-24.715, 252.883-33.747z M 81.367,37.66L 4.086,114.972c-5.625,5.609-5.625,22.719,0.00,28.328
		L 81.367,220.597c 5.625,5.609, 14.156,5.609, 14.156-6.063l0.00-170.813 C 95.523,32.066, 86.992,32.066, 81.367,37.66z"  />
<glyph unicode="&#xe06a;" d="M 251.422,114.972L 174.141,37.659c-5.625-5.594-14.156-5.594-14.156,6.063L 159.984,214.534 c0.00,11.672, 8.531,11.672, 14.156,6.063
		l 77.281-77.297C 257.047,137.691, 257.047,120.582, 251.422,114.972z M 2.61-33.747c-1.282,9.031-2.75,18.032-2.75,27.407
		c0.00,95.078, 69.281,173.469, 160.00,188.781l0.00-85.328 C 86.828,85.393, 27.265,34.19, 2.61-33.747z"  />
<glyph unicode="&#xe06b;" d="M 223.75-31.75l-192.00,0.00 c-17.688,0.00-32.00,14.313-32.00,32.00l0.00,192.00 c0.00,17.672, 14.313,32.00, 32.00,32.00l 96.00,0.00 l0.00-32.00 l-96.00,0.00 l0.00-192.00 l 192.00,0.00 l0.00,48.00 
		c 18.219,18.219, 32.00,32.00, 32.00,32.00l0.00-80.00 C 255.75-17.438, 241.438-31.75, 223.75-31.75z M 171.625,67.562
		c-4.657-4.657-11.781-4.657-11.781,5.063l0.00,39.516 c-41.375-0.594-77.094-38.672-96.563-91.703c0.00,0.094-0.032,0.219-0.032,0.313
		c0.00,84.828, 43.219,154.578, 96.594,154.938l0.00,39.125 c0.00,9.735, 7.125,9.735, 11.781,5.047L 252.00,155.50c 4.657-4.672, 4.657-18.907,0.00-23.578
		L 171.625,67.562z"  />
<glyph unicode="&#xe06c;" d="M 236.781,110.469L 203.75,143.50L 131.375,71.125c-12.50-12.50-24.782-20.50-37.25-8.00c-12.50,12.50-4.50,24.75, 8.00,37.25L 174.50,172.75l-32.532,32.547
		c-7.094,7.094-1.00,18.953, 9.50,18.953l 85.313,0.00 C 247.25,224.25, 255.75,215.765, 255.75,205.297l0.00-85.344 
		C 255.75,109.484, 243.906,103.359, 236.781,110.469z M 31.75,0.25l 160.00,0.00 L 191.75,94.344 l 32.00-32.00L 223.75,0.25 c0.00-17.688-14.313-32.00-32.00-32.00l-160.00,0.00 
		c-17.688,0.00-32.00,14.313-32.00,32.00l0.00,160.00 c0.00,17.672, 14.313,32.00, 32.00,32.00l 62.094,0.00 l 32.00-32.00L 31.75,160.25 L 31.75,0.25 z"  />
<glyph unicode="&#xe06d;" d="M 255.188,95.875L 127.75,95.875 L 127.75,222.578 c 5.438,0.813, 10.844,1.672, 16.50,1.672c 62.125,0.00, 112.50-50.532, 112.50-112.875
		C 256.75,106.062, 255.906,100.984, 255.188,95.875z M 112.25-33.50c-62.125,0.00-112.50,50.532-112.50,112.875c0.00,56.672, 41.75,103.141, 96.00,111.203
		L 95.75,63.875 l 127.438,0.00 C 215.594,8.937, 169.094-33.50, 112.25-33.50z"  />
<glyph unicode="&#xe06e;" d="M 239.75-31.75l-224.00,0.00 c-8.844,0.00-16.00,7.157-16.00,16.00l0.00,224.00 c0.00,8.844, 7.157,16.00, 16.00,16.00s 16.00-7.157, 16.00-16.00l0.00-208.00 l 32.00,0.00 l0.00,64.00 
		c0.00,17.672, 14.313,32.00, 32.00,32.00c 17.657,0.00, 32.00-14.328, 32.00-32.00l0.00-64.00 l 32.00,0.00 l0.00,160.00 c0.00,17.672, 14.313,32.00, 32.00,32.00s 32.00-14.328, 32.00-32.00l0.00-160.00 l 16.00,0.00 
		c 8.844,0.00, 16.00-7.157, 16.00-16.00S 248.594-31.75, 239.75-31.75z"  />
<glyph unicode="&#xe06f;" d="M 223.75-31.75l-160.00,0.00 l0.00,256.00 l 64.00,0.00 l0.00-128.00 l 48.00,64.00l 48.00-64.00l0.00,128.00 c 17.688,0.00, 32.00-14.328, 32.00-32.00l0.00-192.00 C 255.75-17.438, 241.438-31.75, 223.75-31.75
		z M-0.25,0.25l0.00,192.00 c0.00,17.672, 14.313,32.00, 32.00,32.00l0.00-256.00 C 14.063-31.75-0.25-17.438-0.25,0.25z"  />
<glyph unicode="&#xe070;" d="M 144.00,0.00c-44.188,0.00-80.00,35.813-80.00,80.00c0.00,14.688, 4.234,28.282, 11.156,40.094L 51.984,143.25l-33.016-33.032
		C 11.86,103.125,0.00,109.25,0.00,119.719L0.00,205.031 C0.00,215.50, 8.485,224.00, 18.969,224.00l 85.328,0.00 c 10.469,0.00, 16.594-11.844, 9.485-18.969L 81.25,172.50
		l 23.297-23.313C 116.234,155.875, 129.563,160.00, 144.00,160.00c 44.188,0.00, 80.00-35.813, 80.00-80.00S 188.188,0.00, 144.00,0.00z M 144.00,119.875
		c-22.015,0.00-39.875-17.844-39.875-39.875s 17.86-39.875, 39.875-39.875c 22.00,0.00, 39.875,17.844, 39.875,39.875S 166.00,119.875, 144.00,119.875z"  />
<glyph unicode="&#xe071;" d="M 128.00,65.875l0.00-33.625 l 16.00,0.00 c 8.813,0.00, 16.00-7.157, 16.00-16.00s-7.188-16.00-16.00-16.00l-16.00,0.00 l0.00-16.00 c0.00-8.844-7.172-16.00-16.00-16.00
		c-8.844,0.00-16.00,7.157-16.00,16.00l0.00,16.00 l-16.00,0.00 c-8.844,0.00-16.00,7.157-16.00,16.00s 7.157,16.00, 16.00,16.00l 16.00,0.00 l0.00,33.625 C 59.484,73.281, 32.00,105.562, 32.00,144.25
		c0.00,44.188, 35.813,80.00, 80.00,80.00s 80.00-35.813, 80.00-80.00C 192.00,105.562, 164.50,73.281, 128.00,65.875z M 112.00,184.125
		c-22.015,0.00-39.875-17.844-39.875-39.875s 17.86-39.875, 39.875-39.875c 22.00,0.00, 39.875,17.844, 39.875,39.875S 134.00,184.125, 112.00,184.125z"  />
<glyph unicode="&#xe072;" d="M 223.75-31.75l-192.00,0.00 c-17.672,0.00-32.00,14.313-32.00,32.00s 14.328,32.00, 32.00,32.00l 192.00,0.00 c 17.688,0.00, 32.00-14.313, 32.00-32.00S 241.438-31.75, 223.75-31.75z
		 M 213.625,128.359L 159.75,128.359 c0.00-0.063,0.00-0.094,0.00-0.125l0.00-32.00 c0.00-17.688-14.313-32.00-32.00-32.00c-17.672,0.00-32.00,14.313-32.00,32.00l0.00,32.00 
		c0.00,0.032, 0.015,0.063, 0.015,0.125L 42.828,128.359 c-11.672,0.00-11.672,8.531-6.063,14.156L 114.063,219.797c 5.609,5.625, 22.719,5.625, 28.313,0.00
		l 77.313-77.281C 225.313,136.891, 225.313,128.359, 213.625,128.359z"  />
<glyph unicode="&#xe073;" d="M 223.75,160.25l-192.00,0.00 c-17.672,0.00-32.00,14.344-32.00,32.00c0.00,17.688, 14.328,32.00, 32.00,32.00l 192.00,0.00 c 17.688,0.00, 32.00-14.313, 32.00-32.00
		C 255.75,174.593, 241.438,160.25, 223.75,160.25z M 42.828,64.109l 52.938,0.00 c0.00,0.063-0.015,0.125-0.015,0.125L 95.75,96.25 c0.00,17.688, 14.328,32.00, 32.00,32.00
		c 17.688,0.00, 32.00-14.313, 32.00-32.00l0.00-32.016 c0.00,0.00-0.032-0.063-0.032-0.125L 213.625,64.109 c 11.688,0.00, 11.688-8.50, 6.063-14.125L 142.375-27.328
		c-5.594-5.625-22.703-5.625-28.313,0.00L 36.766,49.984C 31.157,55.609, 31.157,64.109, 42.828,64.109z"  />
<glyph unicode="&#xe074;" d="M 239.75,32.00L 95.844,32.00 l0.00-31.125 c0.00-8.719-22.407-8.719-26.61-4.532l-41.859,41.875
		c-4.219,4.188-4.219,17.00,0.00,21.188l 41.859,41.875c 4.203,4.219, 26.61,4.219, 26.61-4.532L 95.844,64.00 L 239.75,64.00 c 8.813,0.00, 16.00-7.157, 16.00-16.00
		S 248.563,32.00, 239.75,32.00z M 186.25,90.719C 182.063,86.50, 159.656,86.50, 159.656,95.25L 159.656,128.00 L 15.75,128.00 c-8.844,0.00-16.00,7.157-16.00,16.00
		s 7.157,16.00, 16.00,16.00l 143.906,0.00 L 159.656,191.125 c0.00,8.719, 22.407,8.719, 26.594,4.532l 41.875-41.875c 4.188-4.188, 4.188-17.00,0.00-21.188L 186.25,90.719z"  />
<glyph unicode="&#xe075;" d="M 224.00,32.25l-32.00,0.00 l0.00-48.00 c0.00-8.844-7.188-16.00-16.00-16.00c-8.844,0.00-16.00,7.157-16.00,16.00l0.00,48.00 l-32.00,0.00 l0.00,64.00 l 32.00,0.00 l0.00,112.00 c0.00,8.844, 7.157,16.00, 16.00,16.00
		c 8.813,0.00, 16.00-7.157, 16.00-16.00l0.00-112.00 l 32.00,0.00 L 224.00,32.25 z M 64.00-15.75c0.00-8.844-7.172-16.00-16.00-16.00c-8.844,0.00-16.00,7.157-16.00,16.00l0.00,112.00 L0.00,96.25 l0.00,64.00 l 32.00,0.00 l0.00,48.00 
		c0.00,8.844, 7.157,16.00, 16.00,16.00c 8.828,0.00, 16.00-7.157, 16.00-16.00l0.00-48.00 l 32.00,0.00 l0.00-64.00 l-32.00,0.00 L 64.00-15.75 z"  />
<glyph unicode="&#xe076;" d="M 191.75,0.25c-3.719,0.00-7.313,0.406-10.844,1.032c-1.782-0.188-3.344-1.032-5.157-1.032l-88.00,0.00 
		c-2.422,0.00-3.672,1.032-5.703,1.375C 35.578,8.344-0.25,47.937-0.25,96.25c0.00,53.032, 42.984,96.00, 96.00,96.00
		c 41.938,0.00, 77.25-27.063, 90.313-64.563c 1.875,0.157, 3.75,0.563, 5.688,0.563c 35.344,0.00, 64.00-28.657, 64.00-64.00S 227.094,0.25, 191.75,0.25
		z M 164.563,91.25l-41.891,41.875c-4.203,4.219-17.00,4.219-21.203,0.00l-41.875-41.875c-4.203-4.188-4.203-26.594, 4.532-26.594l 31.125,0.00 L 95.25,48.75 
		c0.00-8.844, 7.157-16.00, 16.00-16.00s 16.00,7.157, 16.00,16.00l0.00,15.906 L 160.00,64.656 C 168.75,64.656, 168.75,87.062, 164.563,91.25z"  />
<glyph unicode="&#xe077;" d="M 191.75,0.25c-3.719,0.00-7.313,0.406-10.844,1.032c-1.782-0.188-3.344-1.032-5.157-1.032l-88.00,0.00 
		c-2.422,0.00-3.672,1.032-5.703,1.375C 35.578,8.344-0.25,47.937-0.25,96.25c0.00,53.032, 42.984,96.00, 96.00,96.00
		c 41.938,0.00, 77.25-27.063, 90.313-64.563c 1.875,0.157, 3.75,0.563, 5.688,0.563c 35.344,0.00, 64.00-28.657, 64.00-64.00S 227.094,0.25, 191.75,0.25
		z M 158.375,95.844L 127.25,95.844 L 127.25,111.75 c0.00,8.844-7.157,16.00-16.00,16.00s-16.00-7.157-16.00-16.00l0.00-15.906 L 62.50,95.844 c-8.75,0.00-8.75-22.407-4.547-26.594
		l 41.875-41.875c 4.203-4.219, 17.00-4.219, 21.203,0.00l 41.875,41.875C 167.125,73.437, 167.125,95.844, 158.375,95.844z"  />
<glyph unicode="&#xe078;" d="M 255.75,0.25c0.00-17.688-14.344-32.00-32.00-32.00l-192.00,0.00 c-17.688,0.00-32.00,14.313-32.00,32.00l0.00,64.00 c0.00,3.188, 0.938,6.094, 1.813,9.00L 0.75,73.25 l 63.00,151.00
		l 128.00,0.00 l 63.00-151.00l-0.813,0.00 c 0.875-2.906, 1.813-5.813, 1.813-9.00L 255.75,0.25 z M 167.75,192.25l-80.00,0.00 l-40.063-96.00L 79.75,96.25 c0.00-17.688, 14.313-32.00, 32.00-32.00l 32.00,0.00 
		c 17.657,0.00, 32.00,14.313, 32.00,32.00l 32.063,0.00 L 167.75,192.25z"  />
<glyph unicode="&#xe079;" d="M 255.75,95.125l0.00-30.875 l0.00-64.00 c0.00-17.688-14.344-32.00-32.00-32.00l-128.00,0.00 c-17.688,0.00-32.00,14.313-32.00,32.00l0.00,32.00 l-32.00,0.00 c-17.688,0.00-32.00,14.313-32.00,32.00l0.00,128.00 
		c0.00,17.688, 14.313,32.00, 32.00,32.00l 96.00,0.00 c 17.688,0.00, 32.00-14.313, 32.00-32.00l0.00-32.00 l 30.875,0.00 L 255.75,95.125z M 127.75,192.25l-96.00,0.00 l0.00-128.00 l 32.00,0.00 l0.00,64.00 
		c0.00,17.688, 14.313,32.00, 32.00,32.00l 32.00,0.00 L 127.75,192.25 z M 95.75,128.25l0.00-128.00 l 128.00,0.00 l0.00,64.00 l-32.00,0.00 l-32.00,0.00 l0.00,64.00 L 95.75,128.25 z"  />
<glyph unicode="&#xe07a;" d="M 223.75-31.75l-128.00,0.00 c-17.688,0.00-32.00,14.313-32.00,32.00l0.00,32.00 l-32.00,0.00 c-17.688,0.00-32.00,14.313-32.00,32.00l0.00,96.00 c0.00,17.688, 14.313,32.00, 32.00,32.00
		c0.00,17.688, 14.313,32.00, 32.00,32.00l 32.00,0.00 c 17.657,0.00, 32.00-14.313, 32.00-32.00c 17.688,0.00, 32.00-14.313, 32.00-32.00l 30.875,0.00 L 255.75,95.125l0.00-30.875 l0.00-64.00 
		C 255.75-17.438, 241.406-31.75, 223.75-31.75z M 223.75,64.25l-32.00,0.00 l-32.00,0.00 l0.00,64.00 l-64.00,0.00 l0.00-128.00 l 128.00,0.00 L 223.75,64.25 z"  />
<glyph unicode="&#xe07b;" d="M 168.906,95.75l 79.813-46.063c 24.938-13.906-32.75-26.75-44.688-19.844L 128.00,72.156l-43.157-24.938
		c 7.313-8.563, 12.188-19.313, 12.188-31.469c0.00-27.063-21.938-49.00-49.00-49.00s-49.00,21.938-49.00,49.00c0.00,2.406, 1.032,4.469, 1.375,6.782
		c 0.063,2.844, 0.875,5.657, 1.719,8.625c 0.531,1.50, 0.719,3.125, 1.375,4.563c 4.375,10.813, 12.375,21.063, 20.844,25.969l 61.25,34.063
		l-61.25,34.063C 15.875,134.719, 7.875,144.969, 3.50,155.781c-0.656,1.438-0.844,3.063-1.375,4.563c-0.844,2.969-1.657,5.782-1.719,8.625
		c-0.344,2.313-1.375,4.375-1.375,6.782c0.00,27.063, 21.938,49.00, 49.00,49.00s 49.00-21.938, 49.00-49.00c0.00-12.156-4.875-22.907-12.188-31.469L 128.00,119.344
		l 76.031,42.313c 11.938,6.907, 69.625-5.938, 44.688-19.844L 168.906,95.75z"  />
<glyph unicode="&#xe07c;" d="M 223.75-31.75l0.00,128.00 l-192.00,0.00 l0.00-128.00 c-17.688,0.00-32.00,14.313-32.00,32.00l0.00,192.00 c0.00,17.688, 14.313,32.00, 32.00,32.00l 32.00,0.00 l0.00-96.00 l 128.00,0.00 L 191.75,223.125 l 64.00-64.00L 255.75,0.25 
		C 255.75-17.438, 241.406-31.75, 223.75-31.75z M 127.75,224.25l 32.00,0.00 l0.00-64.00 l-32.00,0.00 L 127.75,224.25 z M 191.75-31.75l-128.00,0.00 l0.00,96.00 l 128.00,0.00 L 191.75-31.75 z"  />
<glyph unicode="&#xe07d;" d="M 223.75,64.25c-17.688,0.00-32.00,14.313-32.00,32.00s 14.313,32.00, 32.00,32.00c 17.657,0.00, 32.00-14.313, 32.00-32.00S 241.406,64.25, 223.75,64.25z
		 M 127.75,64.25c-17.688,0.00-32.00,14.313-32.00,32.00s 14.313,32.00, 32.00,32.00s 32.00-14.313, 32.00-32.00S 145.438,64.25, 127.75,64.25z M 31.75,64.25
		c-17.688,0.00-32.00,14.313-32.00,32.00s 14.313,32.00, 32.00,32.00s 32.00-14.313, 32.00-32.00S 49.438,64.25, 31.75,64.25z"  />
<glyph unicode="&#xe07e;" d="M 223.75,0.00l-160.00,0.00 l0.00,32.00 l 160.00,0.00 L 223.75,94.875 l 32.00,32.00L 255.75,32.00 C 255.75,14.344, 241.438,0.00, 223.75,0.00z M 202.469,130.687
		c-3.094-3.094-10.375-0.157-10.375,6.25L 192.094,216.343 c0.00,6.438, 7.282,9.375, 10.375,6.282L 251.50,182.25c 3.063-3.094, 3.063-8.125,0.00-11.219
		L 202.469,130.687z M 31.75,97.125l-32.00-32.00L-0.25,160.00 c0.00,17.688, 14.313,32.00, 32.00,32.00l 160.00,0.00 l0.00-32.00 l-160.00,0.00 L 31.75,97.125 z M 53.032,61.312
		c 3.094,3.094, 10.375,0.157, 10.375-6.25l0.00-79.406 c0.00-6.438-7.282-9.375-10.375-6.282L 4.00,9.75c-3.094,3.094-3.094,8.125,0.00,11.219
		L 53.032,61.312z"  />
<glyph unicode="&#xe07f;" d="M 208.00,64.00c-8.844,0.00-16.00,7.157-16.00,16.00s 7.157,16.00, 16.00,16.00s 16.00-7.157, 16.00-16.00S 216.844,64.00, 208.00,64.00z M 208.00,128.00
		c-8.844,0.00-16.00,7.157-16.00,16.00s 7.157,16.00, 16.00,16.00s 16.00-7.157, 16.00-16.00S 216.844,128.00, 208.00,128.00z M 144.00,0.00c-8.844,0.00-16.00,7.157-16.00,16.00
		c0.00,8.813, 7.157,16.00, 16.00,16.00s 16.00-7.188, 16.00-16.00C 160.00,7.156, 152.844,0.00, 144.00,0.00z M 144.00,64.00c-8.844,0.00-16.00,7.157-16.00,16.00s 7.157,16.00, 16.00,16.00
		s 16.00-7.157, 16.00-16.00S 152.844,64.00, 144.00,64.00z M 80.00,0.00c-8.813,0.00-16.00,7.157-16.00,16.00c0.00,8.813, 7.188,16.00, 16.00,16.00c 8.844,0.00, 16.00-7.188, 16.00-16.00
		C 96.00,7.156, 88.844,0.00, 80.00,0.00z M 208.00,32.00c 8.844,0.00, 16.00-7.188, 16.00-16.00c0.00-8.844-7.157-16.00-16.00-16.00s-16.00,7.157-16.00,16.00
		C 192.00,24.812, 199.156,32.00, 208.00,32.00z"  />
<glyph unicode="&#xe080;" d="M 175.75,32.00l-32.00,0.00 l-48.00,0.00 l-24.00,0.00 c-8.844,0.00-16.00,7.157-16.00,16.00s 7.157,16.00, 16.00,16.00l 24.00,0.00 l 48.00,0.00 l 32.00,0.00 c 26.50,0.00, 48.00,21.50, 48.00,48.00
		c0.00,20.25-12.625,37.375-30.375,44.438c-2.688,2.094-5.938,3.563-9.625,3.563l-8.00,0.00 L 156.50,160.00 L 51.75,160.00 c-8.844,0.00-16.00-7.157-16.00-16.00s 7.157-16.00, 16.00-16.00
		l 52.00,0.00 L 156.50,128.00 l 19.25,0.00 c 8.813,0.00, 16.00-7.157, 16.00-16.00s-7.188-16.00-16.00-16.00l-64.00,0.00 l-8.00,0.00 l-56.00,0.00 c-26.515,0.00-48.00,21.50-48.00,48.00s 21.485,48.00, 48.00,48.00l 48.00,0.00 l 16.00,0.00 l 64.00,0.00 
		c 44.188,0.00, 80.00-35.813, 80.00-80.00S 219.938,32.00, 175.75,32.00z"  />
<glyph unicode="&#xe081;" d="M 237.553,118.21l-21.959-21.96c-16.076-16.076-38.582-20.474-59.147-15.227L 215.594,140.17
		c 12.133,12.133, 12.133,31.788,0.00,43.92c-12.133,12.133-31.788,12.133-43.92,0.00L 112.525,124.944
		c-5.247,20.535-0.85,43.071, 15.226,59.147l 21.96,21.96c 24.265,24.265, 63.575,24.265, 87.84,0.00
		C 261.818,181.816, 261.818,142.475, 237.553,118.21z M 77.401,45.899c-6.066,6.066-6.066,15.893,0.00,21.96l 78.742,78.742
		c 6.066,6.066, 15.893,6.066, 21.96,0.00c 6.067-6.066, 6.067-15.894,0.00-21.96L 99.362,45.899
		C 93.295,39.832, 83.453,39.832, 77.401,45.899z M 39.896,8.409c 12.133-12.133, 31.803-12.133, 43.935,0.00L 142.978,67.555
		c 5.248-20.534, 0.85-43.071-15.226-59.147l-21.96-21.96c-24.265-24.265-63.59-24.265-87.856,0.00c-24.25,24.235-24.25,63.575,0.00,87.841
		L 39.896,96.25c 16.091,16.076, 38.612,20.474, 59.162,15.226L 39.896,52.329C 27.764,40.196, 27.764,20.542, 39.896,8.409z"  />
<glyph unicode="&#xe082;" d="M 220.117,131.687l-80.359-64.375c-4.672-4.657-11.797-4.657-11.797,5.063L 127.96,214.562 c0.00,9.719, 7.125,9.719, 11.797,5.063
		L 220.117,155.25C 224.804,150.594, 224.804,136.344, 220.117,131.687z M 127.867,31.00c 17.015,0.00, 31.265,9.219, 40.063,22.375
		c 0.188,0.157, 0.406,0.032, 0.625,0.188c 16.00,13.531, 35.313,29.844, 52.50,44.313c 1.125-5.782, 1.813-11.75, 1.813-17.875
		c0.00-52.469-42.532-95.00-95.00-95.00s-95.00,42.532-95.00,95.00s 42.532,95.00, 95.00,95.00l0.00-46.00 c-27.063,0.00-49.00-21.938-49.00-49.00S 100.805,31.00, 127.867,31.00z"  />
<glyph unicode="&#xe083;" d="M 127.75-31.75c-53.016,0.00-96.00,42.969-96.00,96.00s 95.016,160.00, 96.00,160.00c 2.00,0.00, 96.00-106.969, 96.00-160.00S 180.75-31.75, 127.75-31.75z
		 M 95.75,64.25l-32.00,0.00 c0.00-35.344, 28.657-64.00, 64.00-64.00l0.00,32.00 C 110.078,32.25, 95.75,46.562, 95.75,64.25z"  />
<glyph unicode="&#xe084;" d="M 112.25-1.50c-62.125,0.00-112.50,50.532-112.50,112.875S 50.125,224.25, 112.25,224.25s 112.50-50.532, 112.50-112.875S 174.375-1.50, 112.25-1.50z
		 M 176.75,127.875l-49.00,0.00 l0.00,49.00 c0.00,8.281-7.719,15.00-16.00,15.00s-16.00-6.719-16.00-15.00l0.00-49.00 l-49.00,0.00 c-8.281,0.00-15.00-7.719-15.00-16.00s 6.719-16.00, 15.00-16.00l 49.00,0.00 l0.00-49.00 
		c0.00-8.281, 7.719-15.00, 16.00-15.00s 16.00,6.719, 16.00,15.00l0.00,49.00 l 49.00,0.00 c 8.281,0.00, 15.00,7.719, 15.00,16.00S 185.031,127.875, 176.75,127.875z"  />
<glyph unicode="&#xe085;" d="M 112.25-1.50c-62.125,0.00-112.50,50.532-112.50,112.875S 50.125,224.25, 112.25,224.25s 112.50-50.532, 112.50-112.875S 174.375-1.50, 112.25-1.50z
		 M 176.75,127.875l-130.00,0.00 c-8.281,0.00-15.00-7.719-15.00-16.00s 6.719-16.00, 15.00-16.00l 130.00,0.00 c 8.281,0.00, 15.00,7.719, 15.00,16.00S 185.031,127.875, 176.75,127.875z"  />
<glyph unicode="&#xe086;" d="M 111.75-0.625c-62.141,0.00-112.50,50.532-112.50,112.875S 49.609,225.125, 111.75,225.125c 62.125,0.00, 112.50-50.532, 112.50-112.875
		S 173.875-0.625, 111.75-0.625z M 155.875,136.625c 12.50,12.50, 16.50,12.75, 4.00,25.25s-12.75,8.50-25.25-4.00L 111.25,134.50l-23.375,23.375
		c-12.50,12.50-12.765,16.50-25.265,4.00c-12.485-12.50-8.485-12.75, 4.00-25.25L 90.00,113.25l-24.39-24.375c-12.50-12.50-16.50-12.75-4.00-25.25s 12.765-8.50, 25.25,4.00
		L 111.25,92.00l 24.375-24.375c 12.50-12.50, 12.75-16.50, 25.25-4.00s 8.50,12.75-4.00,25.25L 132.50,113.25L 155.875,136.625z"  />
<glyph unicode="&#xe087;" d="M 111.75-0.625c-62.141,0.00-112.50,50.532-112.50,112.875S 49.609,225.125, 111.75,225.125c 62.125,0.00, 112.50-50.532, 112.50-112.875
		S 173.875-0.625, 111.75-0.625z M 166.625,157.875L 103.25,94.50l-23.375,23.375c-12.50,12.50-12.765,16.50-25.265,4.00s-8.50-12.75, 4.00-25.25l 29.015-29.00
		c 8.063-8.063, 11.188-11.969, 15.625-10.813c 4.438-1.157, 7.563,2.75, 15.61,10.813l 69.016,69.00c 12.50,12.50, 16.50,12.75, 4.00,25.25
		S 179.125,170.375, 166.625,157.875z"  />
<glyph unicode="&#xe088;" d="M 219.629,131.687l-80.375-64.375c-4.657-4.657-11.781-4.657-11.781,5.063L 127.472,214.562 c0.00,9.719, 7.125,9.719, 11.781,5.063
		l 80.375-64.375C 224.285,150.594, 224.285,136.344, 219.629,131.687z M 124.91,31.50c 0.844,0.125, 1.594,0.50, 2.469,0.50l 4.969,0.00 l 67.031,0.00 l 7.219,0.00 
		c-0.375-0.469-0.906-0.75-1.282-1.188c 5.907-2.375, 10.063-8.094, 10.063-14.813c0.00-8.844-7.157-16.00-16.00-16.00L 138.66,0.00 
		c-3.781-0.313-7.375-1.00-11.281-1.00c-52.469,0.00-95.00,28.532-95.00,81.00s 42.532,95.00, 95.00,95.00l0.00-46.00 c-27.063,0.00-49.00-21.938-49.00-49.00
		C 78.379,53.812, 99.067,32.875, 124.91,31.50z"  />
<glyph unicode="&#xe089;" d="M 128.094-1.00c-3.906,0.00-7.50,0.688-11.281,1.00L 56.094,0.00 c-8.844,0.00-16.00,7.157-16.00,16.00c0.00,6.719, 4.157,12.438, 10.031,14.813
		c-0.344,0.438-0.875,0.719-1.25,1.188l 7.219,0.00 L 123.125,32.00 l 4.969,0.00 c 0.875,0.00, 1.625-0.375, 2.469-0.50c 25.844,1.375, 46.532,22.313, 46.532,48.50
		c0.00,27.063-21.938,49.00-49.00,49.00l0.00,46.00 c 52.469,0.00, 95.00-42.532, 95.00-95.00S 180.563-1.00, 128.094-1.00z M 116.219,67.312l-80.375,64.375
		c-4.657,4.657-4.657,18.907,0.00,23.563l 80.375,64.375C 120.875,224.281, 128.00,224.281, 128.00,214.562L 128.00,72.375 
		C 128.00,62.656, 120.875,62.656, 116.219,67.312z"  />
<glyph unicode="&#xe08a;" d="M 252.859,101.062l-41.875-41.844C 206.797,55.00, 192.391,55.00, 192.391,63.75L 192.391,159.625 c0.00,8.719, 14.406,8.719, 18.594,4.532
		l 41.875-41.875C 257.078,118.094, 257.078,105.281, 252.859,101.062z M 128.00,0.00l-32.00,0.00 l0.00-32.00 L0.00,32.00l0.00,21.00 L0.00,177.00 L0.00,192.00 L0.00,224.00 l 32.00,0.00 l 96.00,0.00 
		c 17.657,0.00, 32.00-14.313, 32.00-32.00l0.00-160.00 C 160.00,14.344, 145.656,0.00, 128.00,0.00z M 128.00,192.00L 48.00,192.00 l 48.00-32.00l0.00-128.00 l 32.00,0.00 L 128.00,192.00 z"  />
<glyph unicode="&#xe08b;" d="M 236.953,59.844l-41.875,41.875c-4.219,4.188-4.219,17.00,0.00,21.188l 41.875,41.875c 4.188,4.219, 18.594,4.219, 18.594-4.532l0.00-95.875 
		C 255.547,55.656, 241.141,55.656, 236.953,59.844z M 127.953,0.00l-32.00,0.00 l0.00-32.00 l-96.00,64.00l0.00,31.00 L-0.047,171.00 L-0.047,192.00 L-0.047,224.00 l 32.00,0.00 l 96.00,0.00 c 17.657,0.00, 32.00-14.313, 32.00-32.00
		l0.00-160.00 C 159.953,14.344, 145.609,0.00, 127.953,0.00z M 127.953,192.00l-80.00,0.00 l 48.00-32.00l0.00-128.00 l 32.00,0.00 L 127.953,192.00 z"  />
<glyph unicode="&#xe08c;" d="M 246.844,138.969L 181.031,73.156C 175.219,67.312, 167.625,64.469, 160.00,64.25l0.00-0.25 l-32.00,0.00 l0.00,32.00 l 0.219,0.00 
		c 0.25,7.625, 3.094,15.219, 8.938,21.032L 202.969,182.843c 12.125,12.125, 31.782,12.125, 43.875,0.00
		C 258.969,170.75, 258.969,151.094, 246.844,138.969z M 32.00,192.00l0.00-160.00 l 158.875,0.00 l 1.125-1.125l 32.00,32.00L 224.00,32.00 c0.00-17.688-14.313-32.00-32.00-32.00L 32.00,0.00 
		c-17.688,0.00-32.00,14.313-32.00,32.00L0.00,192.00 C0.00,209.687, 14.313,224.00, 32.00,224.00l 160.00,0.00 c 0.25,0.00, 0.469-0.125, 0.719-0.157L 160.875,192.00L 32.00,192.00 z"  />
<glyph unicode="&#xe08d;" d="M 223.75-31.75l-192.00,0.00 c-17.688,0.00-32.00,14.313-32.00,32.00l0.00,64.00 l 96.00,0.00 l0.00-32.00 l 64.00,0.00 l0.00,32.00 l 96.00,0.00 l0.00-64.00 C 255.75-17.438, 241.406-31.75, 223.75-31.75z
		 M-0.25,128.25c0.00,17.688, 14.313,32.00, 32.00,32.00l 32.00,0.00 l0.00,32.00 c0.00,17.688, 14.313,32.00, 32.00,32.00l 64.00,0.00 c 17.657,0.00, 32.00-14.313, 32.00-32.00l0.00-32.00 l 32.00,0.00 
		c 17.657,0.00, 32.00-14.313, 32.00-32.00l0.00-32.00 l-256.00,0.00 L-0.25,128.25 z M 95.75,160.25l 64.00,0.00 l0.00,32.00 l-64.00,0.00 L 95.75,160.25 z"  />
<glyph unicode="&#xe08e;" d="M 112.50-33.238c-62.125,0.00-112.50,50.532-112.50,112.875c0.00,44.844, 26.25,83.219, 64.00,101.438l0.00-45.125 
		c-15.781-13.719-26.00-33.719-26.00-56.313c0.00-41.282, 33.344-74.75, 74.50-74.75s 74.50,33.469, 74.50,74.75c0.00,23.063-10.625,43.438-27.00,57.157
		L 160.00,181.637 c 38.313-18.032, 65.00-56.75, 65.00-102.00C 225.00,17.293, 174.625-33.238, 112.50-33.238z M 112.00,96.137c-8.844,0.00-16.00,7.157-16.00,16.00l0.00,96.00 
		c0.00,8.844, 7.157,16.00, 16.00,16.00s 16.00-7.157, 16.00-16.00l0.00-96.00 C 128.00,103.293, 120.844,96.137, 112.00,96.137z"  />
<glyph unicode="&#xe08f;" d="M 255.156,153.312c-3.063-56.407-42.50-102.813-95.406-116.531L 159.75,0.25 l 48.00,0.00 c 8.844,0.00, 16.00-7.157, 16.00-16.00s-7.157-16.00-16.00-16.00l-48.00,0.00 l-64.00,0.00 
		l-48.00,0.00 c-8.844,0.00-16.00,7.157-16.00,16.00s 7.157,16.00, 16.00,16.00l 48.00,0.00 l0.00,36.532 C 42.813,50.469, 3.406,96.906, 0.344,153.312
		C 0.25,154.344-0.25,155.219-0.25,156.25l0.00,4.00 c0.00,17.688, 14.313,32.00, 32.00,32.00l 32.00,0.00 l0.00,32.00 l 128.00,0.00 l0.00-32.00 l 32.00,0.00 c 17.688,0.00, 32.00-14.313, 32.00-32.00l0.00-4.00 
		C 255.75,155.219, 255.25,154.344, 255.156,153.312z M 31.75,160.25c0.00-29.00, 13.031-54.688, 33.25-72.406c-0.781,4.032-1.25,8.156-1.25,12.406
		l0.00,60.00 L 31.75,160.25 z M 191.75,160.25l0.00-60.00 c0.00-4.688-0.563-9.219-1.532-13.625c 21.063,17.75, 34.719,43.938, 34.719,73.625L 191.75,160.25 z"  />
<glyph unicode="&#xe090;" d="M 192.00,96.25c 17.688,0.00, 32.00-14.313, 32.00-32.00l0.00-32.00 c0.00-17.657-14.313-32.00-32.00-32.00l-32.00,0.00 c-17.688,0.00-32.00,14.344-32.00,32.00l0.00,0.00l0.00,64.00 
		c0.00,53.032, 43.00,96.00, 96.00,96.00l0.00-48.282 c-0.094,0.00-0.188,0.032-0.25,0.032c-26.25,0.00-47.50-21.25-47.50-47.50c0.00-0.094,0.00-0.157,0.00-0.25L 192.00,96.25 z M 64.00,0.25L 32.00,0.25 
		c-17.672,0.00-32.00,14.344-32.00,32.00l0.00,32.00 l0.00,32.00 c0.00,53.032, 42.984,96.00, 96.00,96.00l0.00-48.282 c-0.094,0.00-0.172,0.032-0.25,0.032c-26.235,0.00-47.50-21.25-47.50-47.50
		c0.00-0.094, 0.015-0.157, 0.015-0.25L 64.00,96.25 c 17.672,0.00, 32.00-14.313, 32.00-32.00l0.00-32.00 C 96.00,14.594, 81.672,0.25, 64.00,0.25z"  />
<glyph unicode="&#xe091;" d="M 128.00,0.25l0.00,48.282 c 0.094,0.00, 0.188-0.032, 0.25-0.032c 26.25,0.00, 47.50,21.25, 47.50,47.50c0.00,0.094,0.00,0.157,0.00,0.25L 160.00,96.25 
		c-17.688,0.00-32.00,14.313-32.00,32.00l0.00,32.00 c0.00,17.688, 14.313,32.00, 32.00,32.00l 32.00,0.00 c 17.688,0.00, 32.00-14.313, 32.00-32.00l0.00-32.00 l0.00-32.00 C 224.00,43.219, 181.00,0.25, 128.00,0.25z
		 M0.00,0.25l0.00,48.282 c 0.094,0.00, 0.172-0.032, 0.25-0.032c 26.235,0.00, 47.50,21.25, 47.50,47.50c0.00,0.094-0.015,0.157-0.015,0.25L 32.00,96.25 
		c-17.672,0.00-32.00,14.313-32.00,32.00l0.00,32.00 c0.00,17.688, 14.328,32.00, 32.00,32.00l 32.00,0.00 c 17.672,0.00, 32.00-14.313, 32.00-32.00l0.00-32.00 l0.00-32.00 C 96.00,43.219, 53.016,0.25,0.00,0.25z"  />
<glyph unicode="&#xe092;" d="M 224.00,48.25c0.00-44.188-35.813-80.00-80.00-80.00l-48.00,0.00 c-17.672,0.00-32.00,14.313-32.00,32.00c0.00,0.00-19.047-1.375-27.703,0.00L 32.00,0.25 
		c-17.672,0.00-32.00,14.344-32.00,32.00l0.00,64.00 c0.00,17.688, 14.328,32.00, 32.00,32.00c 35.344,0.00, 64.00,28.657, 64.00,64.00c0.00,17.688, 14.328,32.00, 32.00,32.00
		c 17.688,0.00, 32.00-14.313, 32.00-32.00l0.00-32.00 c0.00-11.719-3.375-22.563-8.875-32.00L 192.00,128.25 c 17.688,0.00, 32.00-14.313, 32.00-32.00c0.00,0.00,0.00-32.188,0.00-32.00
		c0.00,0.032-0.563-0.531-1.469-1.438C 223.406,58.062, 224.00,53.25, 224.00,48.25z"  />
<glyph unicode="&#xe093;" d="M 223.75,96.25c0.00-17.657-14.313-32.00-32.00-32.00l-40.875,0.00 c 5.50-9.438, 8.875-20.282, 8.875-32.00l0.00-32.00 c0.00-17.688-14.313-32.00-32.00-32.00
		c-17.672,0.00-32.00,14.313-32.00,32.00c0.00,35.344-28.657,64.00-64.00,64.00c-17.672,0.00-32.00,14.344-32.00,32.00l0.00,64.00 c0.00,17.688, 14.328,32.00, 32.00,32.00l 4.297,0.00 
		c 8.656,1.407, 27.703,0.00, 27.703,0.00c0.00,17.688, 14.328,32.00, 32.00,32.00l 48.00,0.00 c 44.188,0.00, 80.00-35.813, 80.00-80.00c0.00-5.00-0.594-9.813-1.469-14.563
		c 0.906-0.906, 1.469-1.469, 1.469-1.438C 223.75,128.437, 223.75,96.25, 223.75,96.25z"  />
<glyph unicode="&#xe094;" d="M 223.75,64.25l-136.00,0.00 l 5.328-32.00L 207.75,32.25 c 8.813,0.00, 16.00-7.157, 16.00-16.00s-7.188-16.00-16.00-16.00l-32.00,0.00 l-64.00,0.00 l-32.00,0.00 c-8.844,0.00-16.00,7.157-16.00,16.00
		l-29.328,176.00L 15.75,192.25 c-8.844,0.00-16.00,7.157-16.00,16.00s 7.157,16.00, 16.00,16.00l 32.00,0.00 c 8.828,0.00, 16.00-7.157, 16.00-16.00l 2.672-16.00L 223.75,192.25 
		c 17.688,0.00, 32.00-14.313, 32.00-32.00l0.00-64.00 C 255.75,78.562, 241.438,64.25, 223.75,64.25z M 191.75-15.75c0.00-8.844-7.188-16.00-16.00-16.00s-16.00,7.157-16.00,16.00
		s 7.188,16.00, 16.00,16.00S 191.75-6.906, 191.75-15.75z M 127.75-15.75c0.00-8.844-7.172-16.00-16.00-16.00s-16.00,7.157-16.00,16.00s 7.172,16.00, 16.00,16.00
		S 127.75-6.906, 127.75-15.75z"  />
<glyph unicode="&#xe095;" d="M 223.75,64.25l-136.00,0.00 l 5.328-32.00L 207.75,32.25 c 8.813,0.00, 16.00-7.157, 16.00-16.00s-7.188-16.00-16.00-16.00l-32.00,0.00 l-64.00,0.00 l-32.00,0.00 c-8.844,0.00-16.00,7.157-16.00,16.00
		l-29.328,176.00L 15.75,192.25 c-8.828,0.00-16.00,7.157-16.00,16.00s 7.172,16.00, 16.00,16.00l 32.00,0.00 c 8.828,0.00, 16.00-7.157, 16.00-16.00l 2.672-16.00L 223.75,192.25 
		c 17.688,0.00, 32.00-14.313, 32.00-32.00l0.00-64.00 C 255.75,78.562, 241.438,64.25, 223.75,64.25z M 223.75,160.25l-152.00,0.00 l 10.00-64.00l 142.00,0.00 L 223.75,160.25 z M 191.75-15.75
		c0.00-8.844-7.188-16.00-16.00-16.00c-8.844,0.00-16.00,7.157-16.00,16.00s 7.157,16.00, 16.00,16.00C 184.563,0.25, 191.75-6.906, 191.75-15.75z M 127.75-15.75
		c0.00-8.844-7.172-16.00-16.00-16.00c-8.844,0.00-16.00,7.157-16.00,16.00s 7.157,16.00, 16.00,16.00C 120.578,0.25, 127.75-6.906, 127.75-15.75z"  />
<glyph unicode="&#xe096;" d="M 223.75,0.00l-32.00,0.00 c-17.688,0.00-32.00,14.313-32.00,32.00l0.00,32.00 c0.00,17.688, 14.313,32.00, 32.00,32.00l0.00,32.00 c0.00,35.344-28.657,64.00-64.00,64.00
		s-64.00-28.657-64.00-64.00l0.00-32.00 c 17.672,0.00, 32.00-14.313, 32.00-32.00l0.00-32.00 c0.00-17.688-14.328-32.00-32.00-32.00l-32.00,0.00 c-17.672,0.00-32.00,14.313-32.00,32.00l0.00,32.00 
		c0.00,17.688, 14.328,32.00, 32.00,32.00l0.00,32.00 c0.00,53.032, 42.984,96.00, 96.00,96.00c 53.00,0.00, 96.00-42.969, 96.00-96.00l0.00-32.00 c 17.688,0.00, 32.00-14.313, 32.00-32.00l0.00-32.00 
		C 255.75,14.312, 241.438,0.00, 223.75,0.00z"  />
<glyph unicode="&#xe097;" d="M 223.75,32.25l0.00-64.00 l-192.00,0.00 l0.00,64.00 c-17.672,0.00-32.00,14.313-32.00,32.00l0.00,64.00 c0.00,17.688, 14.328,32.00, 32.00,32.00l0.00,64.00 l 192.00,0.00 l0.00-64.00 
		c 17.688,0.00, 32.00-14.313, 32.00-32.00l0.00-64.00 C 255.75,46.562, 241.438,32.25, 223.75,32.25z M 191.75,192.25l-128.00,0.00 l0.00-64.00 l 128.00,0.00 L 191.75,192.25 z M 175.75,96.25
		c-8.844,0.00-16.00-7.157-16.00-16.00s 7.157-16.00, 16.00-16.00c 8.813,0.00, 16.00,7.157, 16.00,16.00S 184.563,96.25, 175.75,96.25z M 191.75,32.25l-128.00,0.00 l0.00-32.00 l 128.00,0.00 L 191.75,32.25 z
		"  />
<glyph unicode="&#xe098;" d="M 176.281,64.531c-4.00,0.00-7.844,0.625-11.688,1.188L 81.406-17.469c-18.75-18.75-49.125-18.75-67.875,0.00s-18.75,49.125,0.00,67.875
		l 84.00,84.00c-0.406,3.281-1.00,6.50-1.00,9.875c0.00,44.063, 35.719,79.75, 79.75,79.75c 9.50,0.00, 18.50-1.938, 26.969-5.00l-33.844-33.844
		c-13.031-13.00-13.031-34.094,0.00-47.094c 13.00-13.00, 34.063-13.00, 47.094,0.00l 34.188,34.219c 3.313-8.75, 5.344-18.125, 5.344-28.032
		C 256.031,100.25, 220.313,64.531, 176.281,64.531z M 48.032,32.031c-8.844,0.00-16.00-7.157-16.00-16.00s 7.157-16.00, 16.00-16.00s 16.00,7.157, 16.00,16.00
		S 56.875,32.031, 48.032,32.031z"  />
<glyph unicode="&#xe099;" d="M 176.07,64.75c-6.407,0.00-12.531,0.938-18.50,2.375l-29.75-29.75l0.00-37.125 l-32.00,0.00 l0.00-32.00 l-48.00,0.00 l-48.00,0.00 l0.00,40.00 c-0.063,2.156-0.281,4.219,0.00,6.375
		l0.00,1.625 l 0.469,0.00 c 1.782,10.063, 6.657,20.00, 15.031,28.375l 82.906,82.906C 97.039,133.00, 96.32,138.656, 96.32,144.50
		c0.00,44.032, 35.718,79.75, 79.75,79.75s 79.75-35.719, 79.75-79.75S 220.101,64.75, 176.07,64.75z M 207.82,192.25c-8.844,0.00-16.00-7.157-16.00-16.00
		s 7.157-16.00, 16.00-16.00s 16.00,7.157, 16.00,16.00S 216.663,192.25, 207.82,192.25z"  />
<glyph unicode="&#xe09a;" d="M 202.375,130.687c-3.094-3.094-10.375-0.157-10.375,6.25L 192.00,160.00 l-32.344,0.00 l-98.875-120.625c-2.875-4.344-7.532-7.375-13.125-7.375
		l-32.00,0.00 c-8.844,0.00-16.00,7.157-16.00,16.00s 7.157,16.00, 16.00,16.00l 16.00,0.00 l 98.875,120.625c 2.875,4.344, 7.532,7.375, 13.125,7.375L 192.00,192.00 L 192.00,216.343 
		c0.00,6.438, 7.282,9.375, 10.375,6.282l 49.032-40.375c 3.063-3.094, 3.063-8.125,0.00-11.188L 202.375,130.687z M 47.657,160.00l-32.00,0.00 
		c-8.844,0.00-16.00,7.157-16.00,16.00s 7.157,16.00, 16.00,16.00l 32.00,0.00 c 8.844,0.00, 16.00-7.157, 16.00-16.00S 56.50,160.00, 47.657,160.00z M 143.656,64.00L 192.00,64.00 l0.00,24.344 
		c0.00,6.438, 7.282,9.375, 10.375,6.282l 49.032-40.375c 3.063-3.094, 3.063-8.125,0.00-11.188l-49.032-40.375
		c-3.094-3.094-10.375-0.157-10.375,6.25L 192.00,32.00 l-48.344,0.00 c-8.844,0.00-16.00,7.157-16.00,16.00S 134.813,64.00, 143.656,64.00z"  />
<glyph unicode="&#xe09b;" d="M 190.969,40.00c0.00-0.594-0.406-0.969-0.469-1.532c 0.406-2.094, 1.25-4.032, 1.25-6.219c0.00-17.657-14.313-32.00-32.00-32.00
		c0.00-17.688-14.344-32.00-32.00-32.00c-17.688,0.00-32.00,14.313-32.00,32.00c-17.688,0.00-32.00,14.344-32.00,32.00c0.00,2.469, 0.875,4.625, 1.407,6.938
		c0.00,0.125-0.125,0.219-0.125,0.375c0.00,17.625-33.282,59.657-33.282,88.688c0.00,53.032, 42.969,96.00, 96.00,96.00s 96.00-42.969, 96.00-96.00
		C 223.75,99.437, 190.969,57.594, 190.969,40.00z M 127.75,192.25l0.00-32.00 c 17.657,0.00, 32.00-14.313, 32.00-32.00l 32.00,0.00 C 191.75,163.593, 163.094,192.25, 127.75,192.25z"  />
<glyph unicode="&#xe09c;" d="M 223.75,96.25l-32.00,0.00 c0.00-17.688-14.344-32.00-32.00-32.00l-96.00,0.00 c-17.688,0.00-32.00,14.313-32.00,32.00l0.00,96.00 c0.00,17.688, 14.313,32.00, 32.00,32.00l 96.00,0.00 
		c 17.657,0.00, 32.00-14.313, 32.00-32.00l 32.00,0.00 c 17.657,0.00, 32.00-14.313, 32.00-32.00l0.00-32.00 C 255.75,110.594, 241.406,96.25, 223.75,96.25z M 223.75,160.25l-32.00,0.00 l0.00-32.00 l 32.00,0.00 L 223.75,160.25 
		z M 191.75,32.25l 48.00,0.00 c 8.844,0.00, 16.00-7.157, 16.00-16.00s-7.157-16.00-16.00-16.00l-16.00,0.00 c0.00-17.688-14.313-32.00-32.00-32.00l-128.00,0.00 c-17.688,0.00-32.00,14.313-32.00,32.00l-16.00,0.00 
		c-8.844,0.00-16.00,7.157-16.00,16.00s 7.157,16.00, 16.00,16.00l 48.00,0.00 L 191.75,32.25 z"  />
<glyph unicode="&#xe09d;" d="M 217.897,184.25l-90.00-92.00l0.00-92.00 l 48.00,0.00 c 8.844,0.00, 16.00-7.157, 16.00-16.00s-7.157-16.00-16.00-16.00l-48.00,0.00 l-32.00,0.00 l-48.00,0.00 c-8.844,0.00-16.00,7.157-16.00,16.00
		s 7.157,16.00, 16.00,16.00l 48.00,0.00 l0.00,92.00 l-90.00,92.00c-10.00,13.688-7.688,40.00, 10.00,40.00l 192.00,0.00 C 225.584,224.25, 227.897,197.937, 217.897,184.25z"  />
<glyph unicode="&#xe09e;" d="M 128.00,33.875l0.00-33.625 l 48.00,0.00 c 8.844,0.00, 16.00-7.157, 16.00-16.00s-7.157-16.00-16.00-16.00l-48.00,0.00 l-32.00,0.00 L 48.00-31.75 c-8.844,0.00-16.00,7.157-16.00,16.00s 7.157,16.00, 16.00,16.00l 48.00,0.00 
		l0.00,33.625 C 41.782,41.687,0.00,87.875,0.00,144.25l0.00,10.00 l0.00,6.00 l0.00,16.00 c0.00,8.844, 7.157,16.00, 16.00,16.00s 16.00-7.157, 16.00-16.00l0.00-16.00 l0.00-6.00 l0.00-10.00 
		c0.00-44.188, 35.813-80.00, 80.00-80.00s 80.00,35.813, 80.00,80.00l0.00,10.00 l0.00,6.00 l0.00,16.00 c0.00,8.844, 7.157,16.00, 16.00,16.00s 16.00-7.157, 16.00-16.00l0.00-16.00 l0.00-6.00 l0.00-10.00 
		C 224.00,87.875, 182.219,41.687, 128.00,33.875z M 112.00,96.25c-26.50,0.00-48.00,21.50-48.00,48.00l0.00,32.00 c0.00,26.50, 21.50,48.00, 48.00,48.00s 48.00-21.50, 48.00-48.00l0.00-32.00 
		C 160.00,117.75, 138.50,96.25, 112.00,96.25z"  />
<glyph unicode="&#xe09f;" d="M 223.75-31.75l-160.00,0.00 l-32.00,0.00 c-17.688,0.00-32.00,14.313-32.00,32.00l0.00,128.00 c0.00,17.688, 14.313,32.00, 32.00,32.00l0.00,32.00 c0.00,17.688, 14.313,32.00, 32.00,32.00l 160.00,0.00 
		c 17.688,0.00, 32.00-14.313, 32.00-32.00l0.00-192.00 C 255.75-17.438, 241.438-31.75, 223.75-31.75z M 223.75,192.25l-160.00,0.00 l0.00-100.00 l0.00-28.00 l0.00-16.00 c0.00-8.844-7.157-16.00-16.00-16.00
		s-16.00,7.157-16.00,16.00l0.00-48.00 l 32.00,0.00 l 44.00,0.00 l 116.00,0.00 L 223.75,192.25 z M 95.75,64.25l 96.00,0.00 l0.00-32.00 l-96.00,0.00 L 95.75,64.25 z M 95.75,160.25l 96.00,0.00 l0.00-64.00 l-96.00,0.00 L 95.75,160.25 z"  />
<glyph unicode="&#xe0a0;" d="M 127.75-31.75c-70.688,0.00-128.00,57.313-128.00,128.00s 57.313,128.00, 128.00,128.00s 128.00-57.313, 128.00-128.00S 198.438-31.75, 127.75-31.75z
		 M 79.75,159.75c-8.563,0.00-15.50-6.938-15.50-15.50s 6.938-15.50, 15.50-15.50s 15.50,6.938, 15.50,15.50S 88.313,159.75, 79.75,159.75z M 175.75,160.25
		c-8.844,0.00-16.00-7.157-16.00-16.00s 7.157-16.00, 16.00-16.00c 8.813,0.00, 16.00,7.157, 16.00,16.00S 184.563,160.25, 175.75,160.25z M 127.75,64.25
		c-39.328,0.00-73.781,17.438-93.766,43.75c 9.313-43.282, 47.719-75.75, 93.766-75.75c 46.063,0.00, 84.438,32.469, 93.75,75.75
		C 201.531,81.687, 167.063,64.25, 127.75,64.25z"  />
<glyph unicode="&#xe0a1;" d="M 127.75-31.75c-70.688,0.00-128.00,57.313-128.00,128.00s 57.313,128.00, 128.00,128.00s 128.00-57.313, 128.00-128.00S 198.438-31.75, 127.75-31.75z
		 M 79.75,160.25c-8.844,0.00-16.00-7.157-16.00-16.00s 7.157-16.00, 16.00-16.00c 8.828,0.00, 16.00,7.157, 16.00,16.00S 88.578,160.25, 79.75,160.25z M 175.75,159.75
		c-8.563,0.00-15.50-6.938-15.50-15.50s 6.938-15.50, 15.50-15.50s 15.50,6.938, 15.50,15.50S 184.313,159.75, 175.75,159.75z M 127.75,96.25
		c-46.047,0.00-84.453-32.469-93.766-75.75c 19.985,26.313, 54.438,43.75, 93.766,43.75c 39.313,0.00, 73.781-17.438, 93.75-43.75
		C 212.188,63.781, 173.813,96.25, 127.75,96.25z"  />
<glyph unicode="&#xe0a2;" d="M 207.75,128.25c-12.25,0.00-23.157,4.938-31.625,12.50L 94.797,107.50c-0.344-3.188-1.688-5.938-2.578-8.906L 153.25,57.906
		c 6.813,3.688, 14.219,6.344, 22.50,6.344c 26.50,0.00, 48.00-21.50, 48.00-48.00s-21.50-48.00-48.00-48.00s-48.00,21.50-48.00,48.00c0.00,5.00, 1.438,9.563, 2.844,14.094l-60.532,40.375
		c-6.688-3.75-14.015-6.469-22.313-6.469c-26.515,0.00-48.00,21.50-48.00,48.00s 21.485,48.00, 48.00,48.00c 15.125,0.00, 28.047-7.438, 36.844-18.375
		l 75.844,31.032c-0.094,1.157-0.688,2.156-0.688,3.344c0.00,26.50, 21.50,48.00, 48.00,48.00s 48.00-21.50, 48.00-48.00S 234.25,128.25, 207.75,128.25z"  />
<glyph unicode="&#xe0a3;" d="M 224.00,96.00l-33.75,0.00 c-6.375-31.313-30.938-56.032-62.25-62.375L 128.00,0.00 l-32.00,0.00 l0.00,33.625 C 64.672,39.969, 40.125,64.687, 33.75,96.00L0.00,96.00 l0.00,32.00 
		l 33.75,0.00 C 40.125,159.312, 64.672,184.031, 96.00,190.375L 96.00,224.00 l 32.00,0.00 l0.00-33.625 C 159.313,184.031, 183.875,159.312, 190.25,128.00L 224.00,128.00 L 224.00,96.00 z M 112.00,159.00
		c-25.953,0.00-47.00-21.032-47.00-47.00s 21.047-47.00, 47.00-47.00c 25.938,0.00, 47.00,21.032, 47.00,47.00S 137.938,159.00, 112.00,159.00z"  />
<glyph unicode="&#xe0a4;" d="M0.00-31.75l0.00,224.00 l 32.00,16.00l0.00,16.00 l 160.00,0.00 l0.00-16.00 l 32.00-16.00l0.00-224.00 L0.00-31.75 z M 64.00,128.25c0.00-17.657, 14.328-32.00, 32.00-32.00l 32.00,0.00 c 17.688,0.00, 32.00,14.344, 32.00,32.00l0.00,32.00 l-32.00,0.00 l0.00-32.00 
		l-32.00,0.00 l0.00,32.00 l-32.00,0.00 L 64.00,128.25 z"  />
<glyph unicode="&#xe0a5;" d="M-0.25,96.25l 256.00,128.00l-128.00-256.00l0.00,128.00 L-0.25,96.25 z"  />
<glyph unicode="&#x41;" d="M 167.571,27.734c 4.438-10.906, 4.688-15.906, 4.688-20.969c0.00-3.781-1.688-7.00-5.00-9.625c-1.813-1.50, 0.75-2.656-2.313-3.438
		c-3.00-0.813-0.813-1.219-5.407-1.219l0.00-24.344 l 95.969,0.00 l0.00,22.344 c-4.625,0.00-7.75,1.688-11.50,3.063c-3.688,1.375-7.00,3.281-9.875,5.688
		c-5.25,4.688-11.156,14.813-17.688,30.407L 135.321,223.36l-16.015,1.00L 37.321,32.703c-7.344-17.063-13.813-28.25-19.422-33.50
		c-3.094-2.75-8.406-7.00-17.907-8.719l0.00-22.344 l 79.391,0.00 l0.00,23.344 c-5.50,0.00-4.032,0.469-7.578,1.375
		c-3.563,0.906-9.36,2.188-11.422,3.781c-3.328,2.875-0.985,6.00-0.985,9.438c0.00,4.375, 1.953,7.125, 5.891,16.282l 12.563,26.813
		l 80.516,0.00 L 167.571,27.734z M 85.289,64.891l 34.672,86.188l 31.453-86.188L 85.289,64.891 z" />
<glyph unicode="&#x42;" d="M 212.453,126.891c 8.938,9.594, 13.375,20.563, 13.375,32.875c0.00,11.688-3.50,22.719-10.563,33.063
		c-7.032,10.375-16.625,18.157-28.813,23.375S 153.516,224.015, 124.266,224.015L-0.422,224.015 l0.00-15.969 c 11.688,0.00, 16.657-1.063, 20.938-3.188
		c 4.266-2.156, 7.25-5.00, 8.938-8.594C 31.157,192.703, 32.00,183.984, 32.00,170.172l0.00-148.813 c0.00-13.844-0.844-22.50-2.547-26.032
		c-1.688-3.50-4.641-6.375-8.844-8.563c-4.219-2.188-9.219-3.313-21.032-3.313l0.00-14.969 l 132.031,0.00 c 36.157,0.00, 63.75,7.625, 82.719,22.813
		c 15.438,12.563, 23.188,28.469, 23.188,47.688c0.00,18.188-7.063,33.032-21.125,44.469c-9.781,8.031-26.813,14.875-51.063,20.532
		C 187.828,109.641, 203.516,117.266, 212.453,126.891z M 95.75,209.703c 18.328,0.125, 32.641-1.688, 40.953-5.469
		c 8.281-3.75, 14.656-9.25, 19.125-16.469c 4.438-7.25, 6.688-16.50, 6.688-27.813s-2.25-20.594-6.782-27.875
		c-4.532-7.313-11.031-12.969-19.532-16.969c-8.438-4.032-22.625-6.032-40.453-6.032L 95.75,209.703 z M 140.078,88.922
		c 9.688-3.781, 17.282-10.406, 22.813-19.907c 5.532-9.469, 8.281-20.188, 8.281-32.125c0.00-10.406-2.25-19.875-6.782-28.344
		c-4.50-8.50-11.00-14.969-19.50-19.407c-8.50-4.469-18.75-6.688-28.797-6.688c-6.782,0.00-11.906,1.719-15.36,5.157
		c-3.453,3.469-5.172,8.594-5.172,15.375l 0.188,9.406l0.00,82.00 C 114.969,94.484, 130.391,92.672, 140.078,88.922z" />
<glyph unicode="&#x49;" d="M 122.734-0.797c-3.469,1.188-6.00,2.906-7.563,5.094c-1.563,2.219-2.344,4.875-2.344,8.031
		c0.00,3.906, 2.00,12.938, 6.032,27.157l 32.344,112.375c 4.657,16.00, 8.469,26.313, 11.406,30.969c 2.969,4.657, 7.282,8.219, 12.938,10.75
		c 3.906,1.875, 9.875,2.781, 17.938,2.656l 8.063,27.969l-98.875,0.00 l-8.281-27.969c 9.688,0.00, 16.219-0.625, 19.532-1.813
		c 3.344-1.188, 5.844-2.906, 7.469-5.188c 1.625-2.25, 2.438-5.032, 2.438-8.313c0.00-6.532-1.875-16.219-5.657-29.063l-32.532-112.375
		c-4.407-15.219-8.688-25.782-12.844-31.688c-2.625-3.781-6.719-6.75-12.25-8.875c-3.406-1.50-10.375-2.406-20.938-2.656l-8.656-27.969
		l 105.313,0.00 l 8.063,27.969C 133.391-2.953, 126.172-1.984, 122.734-0.797z" />
<glyph unicode="&#x55;" d="M0.00-31.688l0.00,32.00 l 224.00,0.00 l0.00-32.00 L0.00-31.688 z M 195.156,196.937c-2.188-3.125-3.281-10.625-3.281-22.50L 191.875,123.50 c0.00-21.469-2.094-37.938-6.25-49.438
		c-4.157-11.531-12.438-21.532-24.844-30.00c-12.406-8.50-24.219-12.75-45.469-12.75c-23.219,0.00-40.75,4.00-52.594,11.969
		c-11.813,7.938-20.313,18.75-25.532,32.407c-3.344,9.375-5.00,26.782-5.00,52.188L 32.187,175.687 c0.00,13.031-1.782,21.563-5.313,25.625
		S 17.50,207.406, 9.375,207.406L 1.407,207.406 L 1.407,224.188 l 93.563,0.00 l0.00-16.782 l-8.125,0.00 c-8.844,0.00-15.094-2.75-18.75-8.281
		c-2.594-3.969-3.906-11.781-3.906-23.438l0.00-57.344 c0.00-4.375, 0.157-8.75, 0.469-13.125s 0.875-9.438, 1.719-15.156
		c 1.563-10.844, 2.313-19.157, 6.188-25.00c 3.906-5.844, 9.625-10.688, 17.125-14.531c 3.656-1.782, 7.813-3.188, 12.50-4.219
		s 9.688-1.563, 15.00-1.563c 13.75,0.00, 19.094,2.969, 30.032,8.906s 17.438,13.656, 21.50,23.125s 6.094,25.532, 6.094,48.125L 174.813,175.687 
		c0.00,13.219-1.469,21.50-4.375,24.844c-4.063,4.594-10.094,6.875-18.125,6.875l-7.969,0.00 L 144.344,224.188 l 78.00,0.00 l0.00-16.782 L 214.375,207.406 
		C 206.031,207.406, 199.625,203.906, 195.156,196.937z" />
<glyph unicode="&#x53;" d="M 105.406,128.031L 224.00,128.031 l0.00-32.00 L 161.281,96.031 C 166.50,92.75, 171.00,89.75, 174.156,87.281c 8.313-6.532, 14.813-14.281, 19.469-23.25
		c 4.625-9.00, 6.969-18.375, 6.969-28.157c0.00-18.313-7.219-34.282-21.657-47.844c-14.406-13.563-32.969-20.344-55.657-20.344
		c-7.00,0.00-13.719,0.531-20.125,1.625c-3.594,0.469-11.375,2.656-23.25,6.50c-11.906,3.875-19.344,5.813-22.375,5.813
		c-2.781,0.00-5.188-0.906-7.219-2.719c-1.719-1.813-2.969-5.563-3.813-11.219L 31.813-32.314 L 31.813,51.875 L 46.50,51.875 c 1.563-8.688, 3.375-16.344, 5.438-23.00
		c 2.031-6.625, 4.469-12.188, 7.219-16.657c 5.313-8.813, 13.406-16.094, 24.282-21.813c 10.875-5.75, 22.875-8.594, 36.032-8.594
		c 14.844,0.00, 26.719,4.00, 35.594,12.031c 8.844,8.00, 13.281,17.375, 13.281,28.125c0.00,5.907-1.625,11.938-4.875,18.094
		s-8.438,11.938-15.563,17.375c-4.469,3.375-17.344,11.031-38.594,22.969c-10.00,5.657-18.813,10.875-26.469,15.625L0.00,96.031 l0.00,32.00 l 46.938,0.00 
		c-0.813,1.282-1.907,2.469-2.625,3.781c-4.563,8.438-6.875,17.719-6.875,27.844c0.00,17.50, 6.75,32.625, 20.282,45.407
		C 71.25,217.875, 88.438,224.25, 109.313,224.25c 13.281,0.00, 27.125-3.156, 41.469-9.469c 3.031-1.313, 5.844-2.375, 8.438-3.219
		s 4.563-1.25, 5.875-1.25c 3.031,0.00, 5.563,0.906, 7.625,2.688c 2.031,1.782, 3.656,5.532, 4.875,11.25l 14.688,0.00 l0.00-84.719 l-14.688,0.00 
		c-1.094,8.063-2.594,15.313-4.532,21.75s-4.344,12.125-7.25,17.063c-5.438,9.50-13.375,17.125-23.813,22.844
		s-21.188,8.594-32.313,8.594c-12.563,0.00-22.938-3.844-31.125-11.50c-8.219-7.657-12.344-16.375-12.344-26.157
		c0.00-7.344, 2.594-14.156, 7.813-20.438C 79.125,145.406, 89.781,137.437, 105.406,128.031z" />
<glyph unicode="&#xe0ab;" d="M-0.25,192.00L-0.25,224.00 l 256.00,0.00 l0.00-32.00 L-0.25,192.00 z M 159.75,128.00l-160.00,0.00 l0.00,32.00 l 160.00,0.00 L 159.75,128.00 z M 223.75,64.00l-224.00,0.00 l0.00,32.00 l 224.00,0.00 L 223.75,64.00 z M 191.75,0.00l-192.00,0.00 l0.00,32.00 l 192.00,0.00 L 191.75,0.00 z"  />
<glyph unicode="&#xe0ac;" d="M-0.25,64.00l0.00,32.00 l 256.00,0.00 l0.00-32.00 L-0.25,64.00 z M 63.75,128.00l0.00,32.00 l 128.00,0.00 l0.00-32.00 L 63.75,128.00 z M-0.25,224.00l 256.00,0.00 l0.00-32.00 l-256.00,0.00 L-0.25,224.00 z M 223.75,0.00l-192.00,0.00 l0.00,32.00 l 192.00,0.00 L 223.75,0.00 z"  />
<glyph unicode="&#xe0ad;" d="M 63.75,0.00l0.00,32.00 l 192.00,0.00 l0.00-32.00 L 63.75,0.00 z M 31.75,96.00l 224.00,0.00 l0.00-32.00 l-224.00,0.00 L 31.75,96.00 z M 95.75,160.00l 160.00,0.00 l0.00-32.00 l-160.00,0.00 L 95.75,160.00 z M-0.25,224.00l 256.00,0.00 l0.00-32.00 l-256.00,0.00 L-0.25,224.00 z"  />
<glyph unicode="&#xe0ae;" d="M-0.25,0.00l0.00,32.00 l 256.00,0.00 l0.00-32.00 L-0.25,0.00 z M-0.25,96.00l 256.00,0.00 l0.00-32.00 l-256.00,0.00 L-0.25,96.00 z M-0.25,160.00l 256.00,0.00 l0.00-32.00 l-256.00,0.00 L-0.25,160.00 z M-0.25,224.00l 256.00,0.00 l0.00-32.00 l-256.00,0.00 L-0.25,224.00 z"  />
<glyph unicode="&#xe0af;" d="M 192.00-31.75L 32.00-31.75 c-17.688,0.00-32.00,14.313-32.00,32.00l0.00,192.00 c0.00,17.688, 14.313,32.00, 32.00,32.00l 160.00,0.00 c 17.688,0.00, 32.00-14.313, 32.00-32.00l0.00-192.00 
		C 224.00-17.438, 209.688-31.75, 192.00-31.75z M 32.00,0.25l 64.00,0.00 l0.00,64.00 L 32.00,64.25 L 32.00,0.25 z M 32.00,160.25l0.00-64.00 l 64.00,0.00 l0.00,64.00 L 32.00,160.25 z M 192.00,160.25L 128.00,160.25 l0.00-64.00 l 64.00,0.00 L 192.00,160.25 z
		 M 192.00,64.25L 128.00,64.25 l0.00-64.00 l 64.00,0.00 L 192.00,64.25 z"  />
<glyph unicode="&#xe0b0;" d="M 175.75-31.75l-96.00,32.00l-80.00-32.00l0.00,224.00 l 80.00,32.00l 96.00-32.00l 80.00,32.00l0.00-224.00 L 175.75-31.75z M 63.75,184.25l-32.00-16.00l0.00-144.00 l 32.00,16.00L 63.75,184.25 z
		 M 159.75,156.25l-64.00,24.00l0.00-144.00 l 64.00-24.00L 159.75,156.25 z M 223.75,172.25l-32.00-16.00l0.00-144.00 l 32.00,16.00L 223.75,172.25 z"  />
<glyph unicode="&#xe0b1;" d="M 207.75,128.25l-16.00,0.00 l0.00-64.00 l 16.00,0.00 c 26.50,0.00, 48.00-21.50, 48.00-48.00s-21.50-48.00-48.00-48.00s-48.00,21.50-48.00,48.00l0.00,16.00 l-64.00,0.00 l0.00-16.00 c0.00-26.50-21.485-48.00-48.00-48.00s-48.00,21.50-48.00,48.00
		s 21.485,48.00, 48.00,48.00l 16.00,0.00 l0.00,64.00 l-16.00,0.00 c-26.515,0.00-48.00,21.50-48.00,48.00s 21.485,48.00, 48.00,48.00s 48.00-21.50, 48.00-48.00l0.00-16.00 l 64.00,0.00 l0.00,16.00 c0.00,26.50, 21.50,48.00, 48.00,48.00s 48.00-21.50, 48.00-48.00
		S 234.25,128.25, 207.75,128.25z M 191.75,16.25c0.00-8.844, 7.188-16.00, 16.00-16.00s 16.00,7.157, 16.00,16.00s-7.188,16.00-16.00,16.00l-16.00,0.00 L 191.75,16.25 z M 63.75,176.25
		c0.00,8.844-7.172,16.00-16.00,16.00c-8.844,0.00-16.00-7.157-16.00-16.00s 7.157-16.00, 16.00-16.00l 16.00,0.00 L 63.75,176.25 z M 63.75,32.25l-16.00,0.00 c-8.844,0.00-16.00-7.157-16.00-16.00
		s 7.157-16.00, 16.00-16.00c 8.828,0.00, 16.00,7.157, 16.00,16.00L 63.75,32.25 z M 159.75,128.25l-64.00,0.00 l0.00-64.00 l 64.00,0.00 L 159.75,128.25 z M 207.75,192.25c-8.813,0.00-16.00-7.157-16.00-16.00l0.00-16.00 l 16.00,0.00 
		c 8.813,0.00, 16.00,7.157, 16.00,16.00S 216.563,192.25, 207.75,192.25z"  />
<glyph unicode="&#xe0b2;" d="M 159.75,79.062L 159.75-31.75 l-46.00,32.00c 2.00,0.00-50.00-32.00-50.00-32.00L 63.75,79.875 c-19.328,14.719-32.00,37.719-32.00,63.875c0.00,44.469, 36.032,80.50, 80.50,80.50
		c 44.438,0.00, 80.50-36.032, 80.50-80.50C 192.75,117.125, 179.688,93.719, 159.75,79.062z M 112.25,193.25c-27.344,0.00-49.50-22.157-49.50-49.50s 22.157-49.50, 49.50-49.50
		s 49.50,22.157, 49.50,49.50S 139.594,193.25, 112.25,193.25z"  />
<glyph unicode="&#xe0b3;" d="M 127.75-31.75c-70.688,0.00-128.00,57.313-128.00,128.00s 57.313,128.00, 128.00,128.00s 128.00-57.313, 128.00-128.00S 198.438-31.75, 127.75-31.75z
		 M 127.75,192.25c-53.016,0.00-96.00-42.969-96.00-96.00s 42.984-96.00, 96.00-96.00L 127.75,192.25 z"  />
</font>
</defs>
</svg>
